%TF.GenerationSoftware,KiCad,Pcbnew,10.0.5*%
%TF.CreationDate,2026-08-26T21:38:35-07:00*%
%TF.ProjectId,test,74657374-2e6b-4696-9361-645f70636258,rev?*%
%TF.SameCoordinates,Original*%
%TF.FileFunction,Soldermask,Top*%
%TF.FilePolarity,Negative*%
%FSLAX46Y46*%
G04 Gerber Fmt 4.6, Leading zero omitted, Abs format (unit mm)*
G04 Created by KiCad (PCBNEW 10.0.5) date 2026-08-26 21:38:35*
%MOMM*%
%LPD*%
G01*
G04 APERTURE LIST*
G04 Aperture macros list*
%AMRoundRect*
0 Rectangle with rounded corners*
0 $1 Rounding radius*
0 $2 $3 $4 $5 $6 $7 $8 $9 X,Y pos of 4 corners*
0 Add a 4 corners polygon primitive as box body*
4,1,4,$2,$3,$4,$5,$6,$7,$8,$9,$2,$3,0*
0 Add four circle primitives for the rounded corners*
1,1,$1+$1,$2,$3*
1,1,$1+$1,$4,$5*
1,1,$1+$1,$6,$7*
1,1,$1+$1,$8,$9*
0 Add four rect primitives between the rounded corners*
20,1,$1+$1,$2,$3,$4,$5,0*
20,1,$1+$1,$4,$5,$6,$7,0*
20,1,$1+$1,$6,$7,$8,$9,0*
20,1,$1+$1,$8,$9,$2,$3,0*%
%AMFreePoly0*
4,1,37,0.603843,0.796157,0.639018,0.796157,0.711114,0.766294,0.766294,0.711114,0.796157,0.639018,0.796157,0.603843,0.800000,0.600000,0.800000,-0.600000,0.796157,-0.603843,0.796157,-0.639018,0.766294,-0.711114,0.711114,-0.766294,0.639018,-0.796157,0.603843,-0.796157,0.600000,-0.800000,0.000000,-0.800000,0.000000,-0.796148,-0.078414,-0.796148,-0.232228,-0.765552,-0.377117,-0.705537,
-0.507515,-0.618408,-0.618408,-0.507515,-0.705537,-0.377117,-0.765552,-0.232228,-0.796148,-0.078414,-0.796148,0.078414,-0.765552,0.232228,-0.705537,0.377117,-0.618408,0.507515,-0.507515,0.618408,-0.377117,0.705537,-0.232228,0.765552,-0.078414,0.796148,0.000000,0.796148,0.000000,0.800000,0.600000,0.800000,0.603843,0.796157,0.603843,0.796157,$1*%
%AMFreePoly1*
4,1,37,0.000000,0.796148,0.078414,0.796148,0.232228,0.765552,0.377117,0.705537,0.507515,0.618408,0.618408,0.507515,0.705537,0.377117,0.765552,0.232228,0.796148,0.078414,0.796148,-0.078414,0.765552,-0.232228,0.705537,-0.377117,0.618408,-0.507515,0.507515,-0.618408,0.377117,-0.705537,0.232228,-0.765552,0.078414,-0.796148,0.000000,-0.796148,0.000000,-0.800000,-0.600000,-0.800000,
-0.603843,-0.796157,-0.639018,-0.796157,-0.711114,-0.766294,-0.766294,-0.711114,-0.796157,-0.639018,-0.796157,-0.603843,-0.800000,-0.600000,-0.800000,0.600000,-0.796157,0.603843,-0.796157,0.639018,-0.766294,0.711114,-0.711114,0.766294,-0.639018,0.796157,-0.603843,0.796157,-0.600000,0.800000,0.000000,0.800000,0.000000,0.796148,0.000000,0.796148,$1*%
G04 Aperture macros list end*
%ADD10R,2.000000X1.905000*%
%ADD11O,2.000000X1.905000*%
%ADD12RoundRect,0.250000X-0.262500X-0.450000X0.262500X-0.450000X0.262500X0.450000X-0.262500X0.450000X0*%
%ADD13RoundRect,0.250000X-1.050000X1.050000X-1.050000X-1.050000X1.050000X-1.050000X1.050000X1.050000X0*%
%ADD14C,2.600000*%
%ADD15C,3.200000*%
%ADD16RoundRect,0.200000X-0.600000X-0.600000X0.600000X-0.600000X0.600000X0.600000X-0.600000X0.600000X0*%
%ADD17C,1.600000*%
%ADD18FreePoly0,0.000000*%
%ADD19FreePoly1,0.000000*%
%ADD20R,1.700000X1.700000*%
%ADD21C,1.700000*%
%TA.AperFunction,ComponentPad*%
%ADD22R,2.000000X1.905000*%
%TD*%
%TA.AperFunction,ComponentPad*%
%ADD23O,2.000000X1.905000*%
%TD*%
%TA.AperFunction,ComponentPad*%
%ADD24RoundRect,0.250000X-1.050000X1.050000X-1.050000X-1.050000X1.050000X-1.050000X1.050000X1.050000X0*%
%TD*%
%TA.AperFunction,ComponentPad*%
%ADD25C,2.600000*%
%TD*%
%TA.AperFunction,ComponentPad*%
%ADD26RoundRect,0.200000X-0.600000X-0.600000X0.600000X-0.600000X0.600000X0.600000X-0.600000X0.600000X0*%
%TD*%
%TA.AperFunction,ComponentPad*%
%ADD27C,1.600000*%
%TD*%
%TA.AperFunction,ComponentPad*%
%ADD28FreePoly0,0.000000*%
%TD*%
%TA.AperFunction,ComponentPad*%
%ADD29FreePoly1,0.000000*%
%TD*%
%TA.AperFunction,ComponentPad*%
%ADD30R,1.700000X1.700000*%
%TD*%
%TA.AperFunction,ComponentPad*%
%ADD31C,1.700000*%
%TD*%
%TA.AperFunction,ViaPad*%
%ADD32C,0.600000*%
%TD*%
%TA.AperFunction,Conductor*%
%ADD33C,0.200000*%
%TD*%
%ADD34C,0.300000*%
%TA.AperFunction,NonConductor*%
%ADD35C,0.300000*%
%TD*%
%TA.AperFunction,SMDPad,CuDef*%
%ADD36RoundRect,0.250000X-0.262500X-0.450000X0.262500X-0.450000X0.262500X0.450000X-0.262500X0.450000X0*%
%TD*%
%TA.AperFunction,Profile*%
%ADD37C,0.050000*%
%TD*%
G04 APERTURE END LIST*
D10*
%TO.C,Q1*%
X147500000Y-99460000D03*
D11*
X147500000Y-102000000D03*
X147500000Y-104540000D03*
%TD*%
D12*
%TO.C,R2*%
X147382500Y-88795000D03*
X149207500Y-88795000D03*
%TD*%
D13*
%TO.C,J1*%
X105327500Y-60455000D03*
D14*
X105327500Y-65535000D03*
%TD*%
D12*
%TO.C,R1*%
X147382500Y-85845000D03*
X149207500Y-85845000D03*
%TD*%
D13*
%TO.C,J3*%
X105500000Y-75500000D03*
D14*
X105500000Y-80580000D03*
%TD*%
D15*
%TO.C,REF\u002A\u002A*%
X171500000Y-53500000D03*
%TD*%
%TO.C,REF\u002A\u002A*%
X103500000Y-136500000D03*
%TD*%
D12*
%TO.C,R3*%
X147382500Y-91745000D03*
X149207500Y-91745000D03*
%TD*%
D15*
%TO.C,REF\u002A\u002A*%
X171500000Y-136500000D03*
%TD*%
D12*
%TO.C,R4*%
X147382500Y-94695000D03*
X149207500Y-94695000D03*
%TD*%
D16*
%TO.C,A1*%
X117500000Y-80500000D03*
D17*
X117500000Y-83040000D03*
D18*
X117500000Y-85580000D03*
D17*
X117500000Y-88120000D03*
X117500000Y-90660000D03*
X117500000Y-93200000D03*
X117500000Y-95740000D03*
D18*
X117500000Y-98280000D03*
D17*
X117500000Y-100820000D03*
X117500000Y-103360000D03*
X117500000Y-105900000D03*
X117500000Y-108440000D03*
D18*
X117500000Y-110980000D03*
D17*
X117500000Y-113520000D03*
X117500000Y-116060000D03*
X117500000Y-118600000D03*
X117500000Y-121140000D03*
D18*
X117500000Y-123680000D03*
D17*
X117500000Y-126220000D03*
X117500000Y-128760000D03*
X135280000Y-128760000D03*
X135280000Y-126220000D03*
D19*
X135280000Y-123680000D03*
D17*
X135280000Y-121140000D03*
X135280000Y-118600000D03*
X135280000Y-116060000D03*
X135280000Y-113520000D03*
D19*
X135280000Y-110980000D03*
D17*
X135280000Y-108440000D03*
X135280000Y-105900000D03*
X135280000Y-103360000D03*
X135280000Y-100820000D03*
D19*
X135280000Y-98280000D03*
D17*
X135280000Y-95740000D03*
X135280000Y-93200000D03*
X135280000Y-90660000D03*
X135280000Y-88120000D03*
D19*
X135280000Y-85580000D03*
D17*
X135280000Y-83040000D03*
X135280000Y-80500000D03*
%TD*%
D13*
%TO.C,J2*%
X169000000Y-76500000D03*
D14*
X169000000Y-81580000D03*
%TD*%
D20*
%TO.C,J4*%
X102500000Y-97460000D03*
D21*
X102500000Y-100000000D03*
X102500000Y-102540000D03*
X102500000Y-105080000D03*
X102500000Y-107620000D03*
X102500000Y-110160000D03*
%TD*%
D15*
%TO.C,REF\u002A\u002A*%
X103500000Y-53500000D03*
%TD*%
D22*
%TO.P,Q1,1,G_1*%
%TO.N,Net-(Q1-G)*%
X147500000Y-99460000D03*
D23*
%TO.P,Q1,2,D_2*%
%TO.N,Net-(J2-Pin_2)*%
X147500000Y-102000000D03*
%TO.P,Q1,3,S_3*%
%TO.N,Net-(Q1-S)*%
X147500000Y-104540000D03*
%TD*%
D24*
%TO.P,J1,1,Pin_1_1*%
%TO.N,GNDPWR*%
X105327500Y-60455000D03*
D25*
%TO.P,J1,2,Pin_2_2*%
%TO.N,Net-(A1-VSYS)*%
X105327500Y-65535000D03*
%TD*%
D24*
%TO.P,J3,1,Pin_1_1*%
%TO.N,Net-(A1-GPIO5)*%
X105500000Y-75500000D03*
D25*
%TO.P,J3,2,Pin_2_2*%
%TO.N,Net-(A1-GPIO4)*%
X105500000Y-80580000D03*
%TD*%
D26*
%TO.P,A1,1,GPIO0_1*%
%TO.N,unconnected-(A1-GPIO0-Pad1)*%
X117500000Y-80500000D03*
D27*
%TO.P,A1,2,GPIO1_2*%
%TO.N,unconnected-(A1-GPIO1-Pad2)*%
X117500000Y-83040000D03*
D28*
%TO.P,A1,3,GND_3*%
%TO.N,GNDPWR*%
X117500000Y-85580000D03*
D27*
%TO.P,A1,4,GPIO2_4*%
%TO.N,unconnected-(A1-GPIO2-Pad4)*%
X117500000Y-88120000D03*
%TO.P,A1,5,GPIO3_5*%
%TO.N,unconnected-(A1-GPIO3-Pad5)*%
X117500000Y-90660000D03*
%TO.P,A1,6,GPIO4_6*%
%TO.N,Net-(A1-GPIO4)*%
X117500000Y-93200000D03*
%TO.P,A1,7,GPIO5_7*%
%TO.N,Net-(A1-GPIO5)*%
X117500000Y-95740000D03*
D28*
%TO.P,A1,8,GND_8*%
%TO.N,GNDPWR*%
X117500000Y-98280000D03*
D27*
%TO.P,A1,9,GPIO6_9*%
%TO.N,unconnected-(A1-GPIO6-Pad9)*%
X117500000Y-100820000D03*
%TO.P,A1,10,GPIO7_10*%
%TO.N,unconnected-(A1-GPIO7-Pad10)*%
X117500000Y-103360000D03*
%TO.P,A1,11,GPIO8_11*%
%TO.N,unconnected-(A1-GPIO8-Pad11)*%
X117500000Y-105900000D03*
%TO.P,A1,12,GPIO9_12*%
%TO.N,unconnected-(A1-GPIO9-Pad12)*%
X117500000Y-108440000D03*
D28*
%TO.P,A1,13,GND_13*%
%TO.N,GNDPWR*%
X117500000Y-110980000D03*
D27*
%TO.P,A1,14,GPIO10_14*%
%TO.N,unconnected-(A1-GPIO10-Pad14)*%
X117500000Y-113520000D03*
%TO.P,A1,15,GPIO11_15*%
%TO.N,unconnected-(A1-GPIO11-Pad15)*%
X117500000Y-116060000D03*
%TO.P,A1,16,GPIO12_16*%
%TO.N,unconnected-(A1-GPIO12-Pad16)*%
X117500000Y-118600000D03*
%TO.P,A1,17,GPIO13_17*%
%TO.N,unconnected-(A1-GPIO13-Pad17)*%
X117500000Y-121140000D03*
D28*
%TO.P,A1,18,GND_18*%
%TO.N,GNDPWR*%
X117500000Y-123680000D03*
D27*
%TO.P,A1,19,GPIO14_19*%
%TO.N,unconnected-(A1-GPIO14-Pad19)*%
X117500000Y-126220000D03*
%TO.P,A1,20,GPIO15_20*%
%TO.N,unconnected-(A1-GPIO15-Pad20)*%
X117500000Y-128760000D03*
%TO.P,A1,21,GPIO16_21*%
%TO.N,Net-(A1-GPIO16)*%
X135280000Y-128760000D03*
%TO.P,A1,22,GPIO17_22*%
%TO.N,unconnected-(A1-GPIO17-Pad22)*%
X135280000Y-126220000D03*
D29*
%TO.P,A1,23,GND_23*%
%TO.N,GNDPWR*%
X135280000Y-123680000D03*
D27*
%TO.P,A1,24,GPIO18_24*%
%TO.N,unconnected-(A1-GPIO18-Pad24)*%
X135280000Y-121140000D03*
%TO.P,A1,25,GPIO19_25*%
%TO.N,unconnected-(A1-GPIO19-Pad25)*%
X135280000Y-118600000D03*
%TO.P,A1,26,GPIO20_26*%
%TO.N,unconnected-(A1-GPIO20-Pad26)*%
X135280000Y-116060000D03*
%TO.P,A1,27,GPIO21_27*%
%TO.N,unconnected-(A1-GPIO21-Pad27)*%
X135280000Y-113520000D03*
D29*
%TO.P,A1,28,GND_28*%
%TO.N,GNDPWR*%
X135280000Y-110980000D03*
D27*
%TO.P,A1,29,GPIO22_29*%
%TO.N,unconnected-(A1-GPIO22-Pad29)*%
X135280000Y-108440000D03*
%TO.P,A1,30,RUN_30*%
%TO.N,unconnected-(A1-RUN-Pad30)*%
X135280000Y-105900000D03*
%TO.P,A1,31,GPIO26_ADC0_31*%
%TO.N,unconnected-(A1-GPIO26_ADC0-Pad31)*%
X135280000Y-103360000D03*
%TO.P,A1,32,GPIO27_ADC1_32*%
%TO.N,unconnected-(A1-GPIO27_ADC1-Pad32)*%
X135280000Y-100820000D03*
D29*
%TO.P,A1,33,AGND_33*%
%TO.N,unconnected-(A1-AGND-Pad33)*%
X135280000Y-98280000D03*
D27*
%TO.P,A1,34,GPIO28_ADC2_34*%
%TO.N,unconnected-(A1-GPIO28_ADC2-Pad34)*%
X135280000Y-95740000D03*
%TO.P,A1,35,ADC_VREF_35*%
%TO.N,unconnected-(A1-ADC_VREF-Pad35)*%
X135280000Y-93200000D03*
%TO.P,A1,36,3V3_36*%
%TO.N,Net-(A1-3V3)*%
X135280000Y-90660000D03*
%TO.P,A1,37,3V3_EN_37*%
%TO.N,unconnected-(A1-3V3_EN-Pad37)*%
X135280000Y-88120000D03*
D29*
%TO.P,A1,38,GND_38*%
%TO.N,GNDPWR*%
X135280000Y-85580000D03*
D27*
%TO.P,A1,39,VSYS_39*%
%TO.N,Net-(A1-VSYS)*%
X135280000Y-83040000D03*
%TO.P,A1,40,VBUS_40*%
%TO.N,unconnected-(A1-VBUS-Pad40)*%
X135280000Y-80500000D03*
%TD*%
D24*
%TO.P,J2,1,Pin_1_1*%
%TO.N,Net-(A1-VSYS)*%
X169000000Y-76500000D03*
D25*
%TO.P,J2,2,Pin_2_2*%
%TO.N,Net-(J2-Pin_2)*%
X169000000Y-81580000D03*
%TD*%
D30*
%TO.P,J4,1,Pin_1_1*%
%TO.N,Net-(A1-3V3)*%
X102500000Y-97460000D03*
D31*
%TO.P,J4,2,Pin_2_2*%
%TO.N,GNDPWR*%
X102500000Y-100000000D03*
%TO.P,J4,3,Pin_3_3*%
%TO.N,Net-(A1-GPIO5)*%
X102500000Y-102540000D03*
%TO.P,J4,4,Pin_4_4*%
%TO.N,Net-(A1-GPIO4)*%
X102500000Y-105080000D03*
%TO.P,J4,5,Pin_5_5*%
%TO.N,unconnected-(J4-Pin_5-Pad5)*%
X102500000Y-107620000D03*
%TO.P,J4,6,Pin_6_6*%
%TO.N,unconnected-(J4-Pin_6-Pad6)*%
X102500000Y-110160000D03*
%TD*%
D32*
%TO.N,GNDPWR*%
X149207500Y-88795000D03*
%TO.N,Net-(A1-GPIO16)*%
X147382500Y-85845000D03*
%TO.N,Net-(A1-3V3)*%
X133000000Y-91000000D03*
X146800000Y-92878282D03*
X128500000Y-88960000D03*
X128500000Y-99500000D03*
X128500000Y-84980000D03*
%TD*%
%TO.N,GNDPWR*%
D33*
X136380000Y-122580000D02*
X136380000Y-112080000D01*
X118600000Y-97180000D02*
X117500000Y-98280000D01*
X135280000Y-123278578D02*
X135280000Y-123680000D01*
X135280000Y-85580000D02*
X136860000Y-84000000D01*
X117500000Y-85580000D02*
X135280000Y-85580000D01*
X153500000Y-84000000D02*
X153500000Y-84502500D01*
X116400000Y-99380000D02*
X116400000Y-109880000D01*
X116400000Y-109880000D02*
X117500000Y-110980000D01*
X117500000Y-110980000D02*
X118600000Y-112080000D01*
X136385000Y-86685000D02*
X135280000Y-85580000D01*
X136860000Y-84000000D02*
X153500000Y-84000000D01*
X136385000Y-109875000D02*
X136385000Y-86685000D01*
X118600000Y-86680000D02*
X118600000Y-97180000D01*
X136380000Y-112080000D02*
X135280000Y-110980000D01*
X118600000Y-122580000D02*
X117500000Y-123680000D01*
X117500000Y-98280000D02*
X116400000Y-99380000D01*
X135280000Y-110980000D02*
X136385000Y-109875000D01*
X135280000Y-123680000D02*
X136380000Y-122580000D01*
X118845000Y-121530000D02*
X133531422Y-121530000D01*
X133531422Y-121530000D02*
X135280000Y-123278578D01*
X118600000Y-112080000D02*
X118600000Y-122580000D01*
X117500000Y-122875000D02*
X118845000Y-121530000D01*
X153500000Y-84502500D02*
X149207500Y-88795000D01*
X117500000Y-123680000D02*
X117500000Y-122875000D01*
X117500000Y-85580000D02*
X118600000Y-86680000D01*
%TO.N,Net-(A1-GPIO16)*%
X140000000Y-124040000D02*
X140000000Y-87000000D01*
X135280000Y-128760000D02*
X140000000Y-124040000D01*
X140000000Y-87000000D02*
X141155000Y-85845000D01*
X141155000Y-85845000D02*
X147382500Y-85845000D01*
%TO.N,Net-(A1-3V3)*%
X128500000Y-88960000D02*
X128500000Y-90500000D01*
X146800000Y-92878282D02*
X153900000Y-85778282D01*
X153900000Y-83834315D02*
X153565685Y-83500000D01*
X135735635Y-84140000D02*
X134860000Y-84140000D01*
X134860000Y-84140000D02*
X134500000Y-84500000D01*
X128500000Y-97440000D02*
X128500000Y-99500000D01*
X134500000Y-84500000D02*
X128980000Y-84500000D01*
X128500000Y-90500000D02*
X129000000Y-91000000D01*
X128980000Y-84500000D02*
X128500000Y-84980000D01*
X135280000Y-90660000D02*
X128500000Y-97440000D01*
X136375635Y-83500000D02*
X135735635Y-84140000D01*
X153565685Y-83500000D02*
X136375635Y-83500000D01*
X153900000Y-85778282D02*
X153900000Y-83834315D01*
X129000000Y-91000000D02*
X133000000Y-91000000D01*
%TD*%
D10*
%TO.C,Q1*%
X147500000Y-99460000D03*
D11*
X147500000Y-102000000D03*
X147500000Y-104540000D03*
%TD*%
D13*
%TO.C,J1*%
X105327500Y-60455000D03*
D14*
X105327500Y-65535000D03*
%TD*%
D13*
%TO.C,J3*%
X105500000Y-75500000D03*
D14*
X105500000Y-80580000D03*
%TD*%
D15*
%TO.C,REF\u002A\u002A*%
X171500000Y-53500000D03*
%TD*%
%TO.C,REF\u002A\u002A*%
X103500000Y-136500000D03*
%TD*%
%TO.C,REF\u002A\u002A*%
X171500000Y-136500000D03*
%TD*%
D16*
%TO.C,A1*%
X117500000Y-80500000D03*
D17*
X117500000Y-83040000D03*
D18*
X117500000Y-85580000D03*
D17*
X117500000Y-88120000D03*
X117500000Y-90660000D03*
X117500000Y-93200000D03*
X117500000Y-95740000D03*
D18*
X117500000Y-98280000D03*
D17*
X117500000Y-100820000D03*
X117500000Y-103360000D03*
X117500000Y-105900000D03*
X117500000Y-108440000D03*
D18*
X117500000Y-110980000D03*
D17*
X117500000Y-113520000D03*
X117500000Y-116060000D03*
X117500000Y-118600000D03*
X117500000Y-121140000D03*
D18*
X117500000Y-123680000D03*
D17*
X117500000Y-126220000D03*
X117500000Y-128760000D03*
X135280000Y-128760000D03*
X135280000Y-126220000D03*
D19*
X135280000Y-123680000D03*
D17*
X135280000Y-121140000D03*
X135280000Y-118600000D03*
X135280000Y-116060000D03*
X135280000Y-113520000D03*
D19*
X135280000Y-110980000D03*
D17*
X135280000Y-108440000D03*
X135280000Y-105900000D03*
X135280000Y-103360000D03*
X135280000Y-100820000D03*
D19*
X135280000Y-98280000D03*
D17*
X135280000Y-95740000D03*
X135280000Y-93200000D03*
X135280000Y-90660000D03*
X135280000Y-88120000D03*
D19*
X135280000Y-85580000D03*
D17*
X135280000Y-83040000D03*
X135280000Y-80500000D03*
%TD*%
D13*
%TO.C,J2*%
X169000000Y-76500000D03*
D14*
X169000000Y-81580000D03*
%TD*%
D20*
%TO.C,J4*%
X102500000Y-97460000D03*
D21*
X102500000Y-100000000D03*
X102500000Y-102540000D03*
X102500000Y-105080000D03*
X102500000Y-107620000D03*
X102500000Y-110160000D03*
%TD*%
D15*
%TO.C,REF\u002A\u002A*%
X103500000Y-53500000D03*
%TD*%
D34*
D35*
X166840225Y-71300828D02*
X167340225Y-72800828D01*
X167340225Y-72800828D02*
X167840225Y-71300828D01*
X168625939Y-71300828D02*
X168911653Y-71300828D01*
X168911653Y-71300828D02*
X169054510Y-71372257D01*
X169054510Y-71372257D02*
X169197367Y-71515114D01*
X169197367Y-71515114D02*
X169268796Y-71800828D01*
X169268796Y-71800828D02*
X169268796Y-72300828D01*
X169268796Y-72300828D02*
X169197367Y-72586542D01*
X169197367Y-72586542D02*
X169054510Y-72729400D01*
X169054510Y-72729400D02*
X168911653Y-72800828D01*
X168911653Y-72800828D02*
X168625939Y-72800828D01*
X168625939Y-72800828D02*
X168483082Y-72729400D01*
X168483082Y-72729400D02*
X168340224Y-72586542D01*
X168340224Y-72586542D02*
X168268796Y-72300828D01*
X168268796Y-72300828D02*
X168268796Y-71800828D01*
X168268796Y-71800828D02*
X168340224Y-71515114D01*
X168340224Y-71515114D02*
X168483082Y-71372257D01*
X168483082Y-71372257D02*
X168625939Y-71300828D01*
X169911653Y-71300828D02*
X169911653Y-72515114D01*
X169911653Y-72515114D02*
X169983082Y-72657971D01*
X169983082Y-72657971D02*
X170054511Y-72729400D01*
X170054511Y-72729400D02*
X170197368Y-72800828D01*
X170197368Y-72800828D02*
X170483082Y-72800828D01*
X170483082Y-72800828D02*
X170625939Y-72729400D01*
X170625939Y-72729400D02*
X170697368Y-72657971D01*
X170697368Y-72657971D02*
X170768796Y-72515114D01*
X170768796Y-72515114D02*
X170768796Y-71300828D01*
X171268797Y-71300828D02*
X172125940Y-71300828D01*
X171697368Y-72800828D02*
X171697368Y-71300828D01*
D22*
%TO.P,Q1,1,G_1*%
%TO.N,Net-(Q1-G)*%
X147500000Y-99460000D03*
D23*
%TO.P,Q1,2,D_2*%
%TO.N,Net-(J2-Pin_2)*%
X147500000Y-102000000D03*
%TO.P,Q1,3,S_3*%
%TO.N,Net-(Q1-S)*%
X147500000Y-104540000D03*
%TD*%
D36*
%TO.P,R2,1*%
%TO.N,Net-(Q1-S)*%
X147382500Y-88795000D03*
%TO.P,R2,2*%
%TO.N,GNDPWR*%
X149207500Y-88795000D03*
%TD*%
D24*
%TO.P,J1,1,Pin_1_1*%
%TO.N,GNDPWR*%
X105327500Y-60455000D03*
D25*
%TO.P,J1,2,Pin_2_2*%
%TO.N,Net-(A1-VSYS)*%
X105327500Y-65535000D03*
%TD*%
D36*
%TO.P,R1,1*%
%TO.N,Net-(A1-GPIO16)*%
X147382500Y-85845000D03*
%TO.P,R1,2*%
%TO.N,Net-(Q1-G)*%
X149207500Y-85845000D03*
%TD*%
D24*
%TO.P,J3,1,Pin_1_1*%
%TO.N,Net-(A1-GPIO5)*%
X105500000Y-75500000D03*
D25*
%TO.P,J3,2,Pin_2_2*%
%TO.N,Net-(A1-GPIO4)*%
X105500000Y-80580000D03*
%TD*%
D36*
%TO.P,R3,1*%
%TO.N,Net-(A1-GPIO4)*%
X147382500Y-91745000D03*
%TO.P,R3,2*%
%TO.N,Net-(A1-3V3)*%
X149207500Y-91745000D03*
%TD*%
%TO.P,R4,1*%
%TO.N,Net-(A1-GPIO5)*%
X147382500Y-94695000D03*
%TO.P,R4,2*%
%TO.N,Net-(A1-3V3)*%
X149207500Y-94695000D03*
%TD*%
D26*
%TO.P,A1,1,GPIO0_1*%
%TO.N,unconnected-(A1-GPIO0-Pad1)*%
X117500000Y-80500000D03*
D27*
%TO.P,A1,2,GPIO1_2*%
%TO.N,unconnected-(A1-GPIO1-Pad2)*%
X117500000Y-83040000D03*
D28*
%TO.P,A1,3,GND_3*%
%TO.N,GNDPWR*%
X117500000Y-85580000D03*
D27*
%TO.P,A1,4,GPIO2_4*%
%TO.N,unconnected-(A1-GPIO2-Pad4)*%
X117500000Y-88120000D03*
%TO.P,A1,5,GPIO3_5*%
%TO.N,unconnected-(A1-GPIO3-Pad5)*%
X117500000Y-90660000D03*
%TO.P,A1,6,GPIO4_6*%
%TO.N,Net-(A1-GPIO4)*%
X117500000Y-93200000D03*
%TO.P,A1,7,GPIO5_7*%
%TO.N,Net-(A1-GPIO5)*%
X117500000Y-95740000D03*
D28*
%TO.P,A1,8,GND_8*%
%TO.N,GNDPWR*%
X117500000Y-98280000D03*
D27*
%TO.P,A1,9,GPIO6_9*%
%TO.N,unconnected-(A1-GPIO6-Pad9)*%
X117500000Y-100820000D03*
%TO.P,A1,10,GPIO7_10*%
%TO.N,unconnected-(A1-GPIO7-Pad10)*%
X117500000Y-103360000D03*
%TO.P,A1,11,GPIO8_11*%
%TO.N,unconnected-(A1-GPIO8-Pad11)*%
X117500000Y-105900000D03*
%TO.P,A1,12,GPIO9_12*%
%TO.N,unconnected-(A1-GPIO9-Pad12)*%
X117500000Y-108440000D03*
D28*
%TO.P,A1,13,GND_13*%
%TO.N,GNDPWR*%
X117500000Y-110980000D03*
D27*
%TO.P,A1,14,GPIO10_14*%
%TO.N,unconnected-(A1-GPIO10-Pad14)*%
X117500000Y-113520000D03*
%TO.P,A1,15,GPIO11_15*%
%TO.N,unconnected-(A1-GPIO11-Pad15)*%
X117500000Y-116060000D03*
%TO.P,A1,16,GPIO12_16*%
%TO.N,unconnected-(A1-GPIO12-Pad16)*%
X117500000Y-118600000D03*
%TO.P,A1,17,GPIO13_17*%
%TO.N,unconnected-(A1-GPIO13-Pad17)*%
X117500000Y-121140000D03*
D28*
%TO.P,A1,18,GND_18*%
%TO.N,GNDPWR*%
X117500000Y-123680000D03*
D27*
%TO.P,A1,19,GPIO14_19*%
%TO.N,unconnected-(A1-GPIO14-Pad19)*%
X117500000Y-126220000D03*
%TO.P,A1,20,GPIO15_20*%
%TO.N,unconnected-(A1-GPIO15-Pad20)*%
X117500000Y-128760000D03*
%TO.P,A1,21,GPIO16_21*%
%TO.N,Net-(A1-GPIO16)*%
X135280000Y-128760000D03*
%TO.P,A1,22,GPIO17_22*%
%TO.N,unconnected-(A1-GPIO17-Pad22)*%
X135280000Y-126220000D03*
D29*
%TO.P,A1,23,GND_23*%
%TO.N,GNDPWR*%
X135280000Y-123680000D03*
D27*
%TO.P,A1,24,GPIO18_24*%
%TO.N,unconnected-(A1-GPIO18-Pad24)*%
X135280000Y-121140000D03*
%TO.P,A1,25,GPIO19_25*%
%TO.N,unconnected-(A1-GPIO19-Pad25)*%
X135280000Y-118600000D03*
%TO.P,A1,26,GPIO20_26*%
%TO.N,unconnected-(A1-GPIO20-Pad26)*%
X135280000Y-116060000D03*
%TO.P,A1,27,GPIO21_27*%
%TO.N,unconnected-(A1-GPIO21-Pad27)*%
X135280000Y-113520000D03*
D29*
%TO.P,A1,28,GND_28*%
%TO.N,GNDPWR*%
X135280000Y-110980000D03*
D27*
%TO.P,A1,29,GPIO22_29*%
%TO.N,unconnected-(A1-GPIO22-Pad29)*%
X135280000Y-108440000D03*
%TO.P,A1,30,RUN_30*%
%TO.N,unconnected-(A1-RUN-Pad30)*%
X135280000Y-105900000D03*
%TO.P,A1,31,GPIO26_ADC0_31*%
%TO.N,unconnected-(A1-GPIO26_ADC0-Pad31)*%
X135280000Y-103360000D03*
%TO.P,A1,32,GPIO27_ADC1_32*%
%TO.N,unconnected-(A1-GPIO27_ADC1-Pad32)*%
X135280000Y-100820000D03*
D29*
%TO.P,A1,33,AGND_33*%
%TO.N,unconnected-(A1-AGND-Pad33)*%
X135280000Y-98280000D03*
D27*
%TO.P,A1,34,GPIO28_ADC2_34*%
%TO.N,unconnected-(A1-GPIO28_ADC2-Pad34)*%
X135280000Y-95740000D03*
%TO.P,A1,35,ADC_VREF_35*%
%TO.N,unconnected-(A1-ADC_VREF-Pad35)*%
X135280000Y-93200000D03*
%TO.P,A1,36,3V3_36*%
%TO.N,Net-(A1-3V3)*%
X135280000Y-90660000D03*
%TO.P,A1,37,3V3_EN_37*%
%TO.N,unconnected-(A1-3V3_EN-Pad37)*%
X135280000Y-88120000D03*
D29*
%TO.P,A1,38,GND_38*%
%TO.N,GNDPWR*%
X135280000Y-85580000D03*
D27*
%TO.P,A1,39,VSYS_39*%
%TO.N,Net-(A1-VSYS)*%
X135280000Y-83040000D03*
%TO.P,A1,40,VBUS_40*%
%TO.N,unconnected-(A1-VBUS-Pad40)*%
X135280000Y-80500000D03*
%TD*%
D24*
%TO.P,J2,1,Pin_1_1*%
%TO.N,Net-(A1-VSYS)*%
X169000000Y-76500000D03*
D25*
%TO.P,J2,2,Pin_2_2*%
%TO.N,Net-(J2-Pin_2)*%
X169000000Y-81580000D03*
%TD*%
D30*
%TO.P,J4,1,Pin_1_1*%
%TO.N,Net-(A1-3V3)*%
X102500000Y-97460000D03*
D31*
%TO.P,J4,2,Pin_2_2*%
%TO.N,GNDPWR*%
X102500000Y-100000000D03*
%TO.P,J4,3,Pin_3_3*%
%TO.N,Net-(A1-GPIO5)*%
X102500000Y-102540000D03*
%TO.P,J4,4,Pin_4_4*%
%TO.N,Net-(A1-GPIO4)*%
X102500000Y-105080000D03*
%TO.P,J4,5,Pin_5_5*%
%TO.N,unconnected-(J4-Pin_5-Pad5)*%
X102500000Y-107620000D03*
%TO.P,J4,6,Pin_6_6*%
%TO.N,unconnected-(J4-Pin_6-Pad6)*%
X102500000Y-110160000D03*
%TD*%
D32*
%TO.N,GNDPWR*%
X149207500Y-88795000D03*
%TO.N,Net-(A1-GPIO16)*%
X147382500Y-85845000D03*
%TO.N,Net-(A1-3V3)*%
X133000000Y-91000000D03*
X146800000Y-92878282D03*
X128500000Y-88960000D03*
X128500000Y-99500000D03*
X128500000Y-84980000D03*
%TD*%
%TO.N,Net-(Q1-G)*%
D33*
X147500000Y-99460000D02*
X152000000Y-94960000D01*
X152000000Y-85500000D02*
X151500000Y-85500000D01*
X152000000Y-94960000D02*
X152000000Y-85500000D01*
X151500000Y-85500000D02*
X151155000Y-85845000D01*
X151155000Y-85845000D02*
X149207500Y-85845000D01*
%TO.N,Net-(J2-Pin_2)*%
X148800000Y-98896769D02*
X148800000Y-100700000D01*
X166116769Y-81580000D02*
X148800000Y-98896769D01*
X148800000Y-100700000D02*
X147500000Y-102000000D01*
X169000000Y-81580000D02*
X166116769Y-81580000D01*
%TO.N,Net-(Q1-S)*%
X146200000Y-89977500D02*
X147382500Y-88795000D01*
X147500000Y-104540000D02*
X146200000Y-103240000D01*
X146200000Y-103240000D02*
X146200000Y-89977500D01*
%TO.N,GNDPWR*%
X111440786Y-79520786D02*
X111440786Y-66568286D01*
X117500000Y-85580000D02*
X111440786Y-79520786D01*
X102500000Y-100000000D02*
X106880650Y-100000000D01*
X111440786Y-66568286D02*
X105327500Y-60455000D01*
X106880650Y-100000000D02*
X117500000Y-110619350D01*
X117500000Y-110619350D02*
X117500000Y-110980000D01*
%TO.N,Net-(A1-VSYS)*%
X107355000Y-58855000D02*
X115708960Y-67208960D01*
X115708960Y-74153484D02*
X124595476Y-83040000D01*
X115708960Y-67208960D02*
X115708960Y-74153484D01*
X103727500Y-63935000D02*
X103727500Y-59170256D01*
X105327500Y-65535000D02*
X103727500Y-63935000D01*
X103727500Y-59170256D02*
X104042756Y-58855000D01*
X104042756Y-58855000D02*
X107355000Y-58855000D01*
X169000000Y-76500000D02*
X141820000Y-76500000D01*
X141820000Y-76500000D02*
X135280000Y-83040000D01*
X124595476Y-83040000D02*
X135280000Y-83040000D01*
%TO.N,Net-(A1-GPIO5)*%
X149539058Y-87245000D02*
X150020000Y-87725942D01*
X114260000Y-92500000D02*
X117500000Y-95740000D01*
X139534950Y-87395000D02*
X137369950Y-89560000D01*
X150020000Y-92429744D02*
X149704744Y-92745000D01*
X169828427Y-79580000D02*
X152150256Y-79580000D01*
X103650000Y-106350000D02*
X103500000Y-106500000D01*
X103650000Y-103690000D02*
X103650000Y-106350000D01*
X149332500Y-92745000D02*
X147382500Y-94695000D01*
X116400000Y-94640000D02*
X117500000Y-95740000D01*
X149704744Y-92745000D02*
X149332500Y-92745000D01*
X171440786Y-90961474D02*
X171440786Y-81192359D01*
X103500000Y-106500000D02*
X104742446Y-107742446D01*
X102500000Y-102540000D02*
X103650000Y-103690000D01*
X104742446Y-109050764D02*
X107776682Y-112085000D01*
X116940000Y-89560000D02*
X114000000Y-92500000D01*
X116400000Y-86400000D02*
X116400000Y-94640000D01*
X104742446Y-107742446D02*
X104742446Y-109050764D01*
X146570000Y-86529744D02*
X147285256Y-87245000D01*
X114000000Y-92500000D02*
X114260000Y-92500000D01*
X116940000Y-89560000D02*
X137369950Y-89560000D01*
X150020000Y-88110256D02*
X149304744Y-87395000D01*
X171440786Y-81192359D02*
X169828427Y-79580000D01*
X149304744Y-87395000D02*
X139534950Y-87395000D01*
X146570000Y-85160256D02*
X146570000Y-86529744D01*
X150317260Y-112085000D02*
X171440786Y-90961474D01*
X152150256Y-79580000D02*
X146570000Y-85160256D01*
X107776682Y-112085000D02*
X150317260Y-112085000D01*
X105500000Y-75500000D02*
X116400000Y-86400000D01*
X150020000Y-87725942D02*
X150020000Y-92429744D01*
X150020000Y-92429744D02*
X150020000Y-88110256D01*
X147285256Y-87245000D02*
X149539058Y-87245000D01*
%TO.N,Net-(A1-GPIO4)*%
X118600000Y-94300000D02*
X117500000Y-93200000D01*
X115602183Y-95397817D02*
X117044365Y-96840000D01*
X117955635Y-96840000D02*
X118600000Y-96195635D01*
X100950000Y-96710000D02*
X102262183Y-95397817D01*
X105500000Y-85295635D02*
X115602183Y-95397817D01*
X147879744Y-87795000D02*
X139700635Y-87795000D01*
X105500000Y-80580000D02*
X105500000Y-85295635D01*
X100950000Y-103530000D02*
X100950000Y-96710000D01*
X147382500Y-91745000D02*
X148195000Y-90932500D01*
X148195000Y-90932500D02*
X148195000Y-88110256D01*
X118600000Y-92100000D02*
X117500000Y-93200000D01*
X102500000Y-105080000D02*
X100950000Y-103530000D01*
X148195000Y-88110256D02*
X147879744Y-87795000D01*
X135395635Y-92100000D02*
X118600000Y-92100000D01*
X117044365Y-96840000D02*
X117955635Y-96840000D01*
X139700635Y-87795000D02*
X135395635Y-92100000D01*
X118600000Y-96195635D02*
X118600000Y-94300000D01*
X102262183Y-95397817D02*
X115602183Y-95397817D01*
%TO.N,Net-(A1-3V3)*%
X134940000Y-91000000D02*
X135280000Y-90660000D01*
X148395000Y-86529744D02*
X148710256Y-86845000D01*
X140641198Y-99500000D02*
X149436423Y-108295225D01*
X102500000Y-97460000D02*
X104540000Y-99500000D01*
X153575256Y-79980000D02*
X148395000Y-85160256D01*
X149436423Y-108295225D02*
X153541350Y-108295225D01*
X133000000Y-91000000D02*
X134940000Y-91000000D01*
X153541350Y-108295225D02*
X154000000Y-107836575D01*
X150500000Y-87640256D02*
X150500000Y-93402500D01*
X170600000Y-80917258D02*
X169662742Y-79980000D01*
X149207500Y-91745000D02*
X148074218Y-92878282D01*
X149704744Y-86845000D02*
X150500000Y-87640256D01*
X148440000Y-91745000D02*
X148195000Y-91500000D01*
X150500000Y-93402500D02*
X149207500Y-94695000D01*
X154000000Y-97517258D02*
X168337258Y-83180000D01*
X169662742Y-79980000D02*
X153575256Y-79980000D01*
X169662742Y-83180000D02*
X170600000Y-82242742D01*
X148074218Y-92878282D02*
X146800000Y-92878282D01*
X128500000Y-99500000D02*
X140641198Y-99500000D01*
X170600000Y-82242742D02*
X170600000Y-80917258D01*
X148395000Y-85160256D02*
X148395000Y-86529744D01*
X104540000Y-99500000D02*
X128500000Y-99500000D01*
X148710256Y-86845000D02*
X149704744Y-86845000D01*
X154000000Y-107836575D02*
X154000000Y-97517258D01*
X149207500Y-91745000D02*
X148440000Y-91745000D01*
X168337258Y-83180000D02*
X169662742Y-83180000D01*
X128500000Y-84980000D02*
X128500000Y-88960000D01*
%TD*%
D12*
%TO.C,R2*%
X147382500Y-88795000D03*
X149207500Y-88795000D03*
%TD*%
%TO.C,R1*%
X147382500Y-85845000D03*
X149207500Y-85845000D03*
%TD*%
%TO.C,R3*%
X147382500Y-91745000D03*
X149207500Y-91745000D03*
%TD*%
%TO.C,R4*%
X147382500Y-94695000D03*
X149207500Y-94695000D03*
%TD*%
D37*
X100000000Y-53000000D02*
G75*
G02*
X103000000Y-50000000I3000000J0D01*
G01*
X100000000Y-137000000D02*
X100000000Y-53000000D01*
X103000000Y-50000000D02*
X172000000Y-50000000D01*
X103000000Y-140000000D02*
G75*
G02*
X100000000Y-137000000I0J3000000D01*
G01*
X172000000Y-50000000D02*
G75*
G02*
X175000000Y-53000000I0J-3000000D01*
G01*
X172000000Y-140000000D02*
X103000000Y-140000000D01*
X175000000Y-53000000D02*
X175000000Y-137000000D01*
X175000000Y-137000000D02*
G75*
G02*
X172000000Y-140000000I-3000000J0D01*
G01*
M02*
