%TF.GenerationSoftware,KiCad,Pcbnew,10.0.5*%
%TF.CreationDate,2026-08-26T21:38:35-07:00*%
%TF.ProjectId,test,74657374-2e6b-4696-9361-645f70636258,rev?*%
%TF.SameCoordinates,Original*%
%TF.FileFunction,Legend,Top*%
%TF.FilePolarity,Positive*%
%FSLAX46Y46*%
G04 Gerber Fmt 4.6, Leading zero omitted, Abs format (unit mm)*
G04 Created by KiCad (PCBNEW 10.0.5) date 2026-08-26 21:38:35*
%MOMM*%
%LPD*%
G01*
G04 APERTURE LIST*
G04 Aperture macros list*
%AMRoundRect*
0 Rectangle with rounded corners*
0 $1 Rounding radius*
0 $2 $3 $4 $5 $6 $7 $8 $9 X,Y pos of 4 corners*
0 Add a 4 corners polygon primitive as box body*
4,1,4,$2,$3,$4,$5,$6,$7,$8,$9,$2,$3,0*
0 Add four circle primitives for the rounded corners*
1,1,$1+$1,$2,$3*
1,1,$1+$1,$4,$5*
1,1,$1+$1,$6,$7*
1,1,$1+$1,$8,$9*
0 Add four rect primitives between the rounded corners*
20,1,$1+$1,$2,$3,$4,$5,0*
20,1,$1+$1,$4,$5,$6,$7,0*
20,1,$1+$1,$6,$7,$8,$9,0*
20,1,$1+$1,$8,$9,$2,$3,0*%
%AMFreePoly0*
4,1,37,0.603843,0.796157,0.639018,0.796157,0.711114,0.766294,0.766294,0.711114,0.796157,0.639018,0.796157,0.603843,0.800000,0.600000,0.800000,-0.600000,0.796157,-0.603843,0.796157,-0.639018,0.766294,-0.711114,0.711114,-0.766294,0.639018,-0.796157,0.603843,-0.796157,0.600000,-0.800000,0.000000,-0.800000,0.000000,-0.796148,-0.078414,-0.796148,-0.232228,-0.765552,-0.377117,-0.705537,
-0.507515,-0.618408,-0.618408,-0.507515,-0.705537,-0.377117,-0.765552,-0.232228,-0.796148,-0.078414,-0.796148,0.078414,-0.765552,0.232228,-0.705537,0.377117,-0.618408,0.507515,-0.507515,0.618408,-0.377117,0.705537,-0.232228,0.765552,-0.078414,0.796148,0.000000,0.796148,0.000000,0.800000,0.600000,0.800000,0.603843,0.796157,0.603843,0.796157,$1*%
%AMFreePoly1*
4,1,37,0.000000,0.796148,0.078414,0.796148,0.232228,0.765552,0.377117,0.705537,0.507515,0.618408,0.618408,0.507515,0.705537,0.377117,0.765552,0.232228,0.796148,0.078414,0.796148,-0.078414,0.765552,-0.232228,0.705537,-0.377117,0.618408,-0.507515,0.507515,-0.618408,0.377117,-0.705537,0.232228,-0.765552,0.078414,-0.796148,0.000000,-0.796148,0.000000,-0.800000,-0.600000,-0.800000,
-0.603843,-0.796157,-0.639018,-0.796157,-0.711114,-0.766294,-0.766294,-0.711114,-0.796157,-0.639018,-0.796157,-0.603843,-0.800000,-0.600000,-0.800000,0.600000,-0.796157,0.603843,-0.796157,0.639018,-0.766294,0.711114,-0.711114,0.766294,-0.639018,0.796157,-0.603843,0.796157,-0.600000,0.800000,0.000000,0.800000,0.000000,0.796148,0.000000,0.796148,$1*%
G04 Aperture macros list end*
%ADD10C,0.100000*%
%ADD11C,0.300000*%
%ADD12C,1.000000*%
%ADD13C,0.150000*%
%ADD14C,0.120000*%
%ADD15C,0.000000*%
%TA.AperFunction,ComponentPad*%
%ADD16R,2.000000X1.905000*%
%TD*%
%TA.AperFunction,ComponentPad*%
%ADD17O,2.000000X1.905000*%
%TD*%
%TA.AperFunction,ComponentPad*%
%ADD18RoundRect,0.250000X-1.050000X1.050000X-1.050000X-1.050000X1.050000X-1.050000X1.050000X1.050000X0*%
%TD*%
%TA.AperFunction,ComponentPad*%
%ADD19C,2.600000*%
%TD*%
%TA.AperFunction,ComponentPad*%
%ADD20RoundRect,0.200000X-0.600000X-0.600000X0.600000X-0.600000X0.600000X0.600000X-0.600000X0.600000X0*%
%TD*%
%TA.AperFunction,ComponentPad*%
%ADD21C,1.600000*%
%TD*%
%TA.AperFunction,ComponentPad*%
%ADD22FreePoly0,0.000000*%
%TD*%
%TA.AperFunction,ComponentPad*%
%ADD23FreePoly1,0.000000*%
%TD*%
%TA.AperFunction,ComponentPad*%
%ADD24R,1.700000X1.700000*%
%TD*%
%TA.AperFunction,ComponentPad*%
%ADD25C,1.700000*%
%TD*%
%TA.AperFunction,ViaPad*%
%ADD26C,0.600000*%
%TD*%
%TA.AperFunction,Conductor*%
%ADD27C,0.200000*%
%TD*%
%ADD28R,2.000000X1.905000*%
%ADD29O,2.000000X1.905000*%
%ADD30RoundRect,0.250000X-1.050000X1.050000X-1.050000X-1.050000X1.050000X-1.050000X1.050000X1.050000X0*%
%ADD31C,2.600000*%
%ADD32C,3.200000*%
%ADD33RoundRect,0.200000X-0.600000X-0.600000X0.600000X-0.600000X0.600000X0.600000X-0.600000X0.600000X0*%
%ADD34C,1.600000*%
%ADD35FreePoly0,0.000000*%
%ADD36FreePoly1,0.000000*%
%ADD37R,1.700000X1.700000*%
%ADD38C,1.700000*%
%TA.AperFunction,NonConductor*%
%ADD39C,0.300000*%
%TD*%
%TA.AperFunction,SMDPad,CuDef*%
%ADD40RoundRect,0.250000X-0.262500X-0.450000X0.262500X-0.450000X0.262500X0.450000X-0.262500X0.450000X0*%
%TD*%
%ADD41RoundRect,0.250000X-0.262500X-0.450000X0.262500X-0.450000X0.262500X0.450000X-0.262500X0.450000X0*%
%TA.AperFunction,Profile*%
%ADD42C,0.050000*%
%TD*%
G04 APERTURE END LIST*
D10*
X126127580Y-97375312D02*
X126603771Y-97041979D01*
X126127580Y-96803884D02*
X127127580Y-96803884D01*
X127127580Y-96803884D02*
X127127580Y-97184836D01*
X127127580Y-97184836D02*
X127079961Y-97280074D01*
X127079961Y-97280074D02*
X127032342Y-97327693D01*
X127032342Y-97327693D02*
X126937104Y-97375312D01*
X126937104Y-97375312D02*
X126794247Y-97375312D01*
X126794247Y-97375312D02*
X126699009Y-97327693D01*
X126699009Y-97327693D02*
X126651390Y-97280074D01*
X126651390Y-97280074D02*
X126603771Y-97184836D01*
X126603771Y-97184836D02*
X126603771Y-96803884D01*
X126127580Y-98232455D02*
X126651390Y-98232455D01*
X126651390Y-98232455D02*
X126746628Y-98184836D01*
X126746628Y-98184836D02*
X126794247Y-98089598D01*
X126794247Y-98089598D02*
X126794247Y-97899122D01*
X126794247Y-97899122D02*
X126746628Y-97803884D01*
X126175200Y-98232455D02*
X126127580Y-98137217D01*
X126127580Y-98137217D02*
X126127580Y-97899122D01*
X126127580Y-97899122D02*
X126175200Y-97803884D01*
X126175200Y-97803884D02*
X126270438Y-97756265D01*
X126270438Y-97756265D02*
X126365676Y-97756265D01*
X126365676Y-97756265D02*
X126460914Y-97803884D01*
X126460914Y-97803884D02*
X126508533Y-97899122D01*
X126508533Y-97899122D02*
X126508533Y-98137217D01*
X126508533Y-98137217D02*
X126556152Y-98232455D01*
X126175200Y-98661027D02*
X126127580Y-98756265D01*
X126127580Y-98756265D02*
X126127580Y-98946741D01*
X126127580Y-98946741D02*
X126175200Y-99041979D01*
X126175200Y-99041979D02*
X126270438Y-99089598D01*
X126270438Y-99089598D02*
X126318057Y-99089598D01*
X126318057Y-99089598D02*
X126413295Y-99041979D01*
X126413295Y-99041979D02*
X126460914Y-98946741D01*
X126460914Y-98946741D02*
X126460914Y-98803884D01*
X126460914Y-98803884D02*
X126508533Y-98708646D01*
X126508533Y-98708646D02*
X126603771Y-98661027D01*
X126603771Y-98661027D02*
X126651390Y-98661027D01*
X126651390Y-98661027D02*
X126746628Y-98708646D01*
X126746628Y-98708646D02*
X126794247Y-98803884D01*
X126794247Y-98803884D02*
X126794247Y-98946741D01*
X126794247Y-98946741D02*
X126746628Y-99041979D01*
X126794247Y-99518170D02*
X125794247Y-99518170D01*
X126746628Y-99518170D02*
X126794247Y-99613408D01*
X126794247Y-99613408D02*
X126794247Y-99803884D01*
X126794247Y-99803884D02*
X126746628Y-99899122D01*
X126746628Y-99899122D02*
X126699009Y-99946741D01*
X126699009Y-99946741D02*
X126603771Y-99994360D01*
X126603771Y-99994360D02*
X126318057Y-99994360D01*
X126318057Y-99994360D02*
X126222819Y-99946741D01*
X126222819Y-99946741D02*
X126175200Y-99899122D01*
X126175200Y-99899122D02*
X126127580Y-99803884D01*
X126127580Y-99803884D02*
X126127580Y-99613408D01*
X126127580Y-99613408D02*
X126175200Y-99518170D01*
X126127580Y-100422932D02*
X127127580Y-100422932D01*
X126746628Y-100422932D02*
X126794247Y-100518170D01*
X126794247Y-100518170D02*
X126794247Y-100708646D01*
X126794247Y-100708646D02*
X126746628Y-100803884D01*
X126746628Y-100803884D02*
X126699009Y-100851503D01*
X126699009Y-100851503D02*
X126603771Y-100899122D01*
X126603771Y-100899122D02*
X126318057Y-100899122D01*
X126318057Y-100899122D02*
X126222819Y-100851503D01*
X126222819Y-100851503D02*
X126175200Y-100803884D01*
X126175200Y-100803884D02*
X126127580Y-100708646D01*
X126127580Y-100708646D02*
X126127580Y-100518170D01*
X126127580Y-100518170D02*
X126175200Y-100422932D01*
X126175200Y-101708646D02*
X126127580Y-101613408D01*
X126127580Y-101613408D02*
X126127580Y-101422932D01*
X126127580Y-101422932D02*
X126175200Y-101327694D01*
X126175200Y-101327694D02*
X126270438Y-101280075D01*
X126270438Y-101280075D02*
X126651390Y-101280075D01*
X126651390Y-101280075D02*
X126746628Y-101327694D01*
X126746628Y-101327694D02*
X126794247Y-101422932D01*
X126794247Y-101422932D02*
X126794247Y-101613408D01*
X126794247Y-101613408D02*
X126746628Y-101708646D01*
X126746628Y-101708646D02*
X126651390Y-101756265D01*
X126651390Y-101756265D02*
X126556152Y-101756265D01*
X126556152Y-101756265D02*
X126460914Y-101280075D01*
X126127580Y-102184837D02*
X126794247Y-102184837D01*
X126603771Y-102184837D02*
X126699009Y-102232456D01*
X126699009Y-102232456D02*
X126746628Y-102280075D01*
X126746628Y-102280075D02*
X126794247Y-102375313D01*
X126794247Y-102375313D02*
X126794247Y-102470551D01*
X126127580Y-102803885D02*
X126794247Y-102803885D01*
X126603771Y-102803885D02*
X126699009Y-102851504D01*
X126699009Y-102851504D02*
X126746628Y-102899123D01*
X126746628Y-102899123D02*
X126794247Y-102994361D01*
X126794247Y-102994361D02*
X126794247Y-103089599D01*
X126794247Y-103327695D02*
X126127580Y-103565790D01*
X126794247Y-103803885D02*
X126127580Y-103565790D01*
X126127580Y-103565790D02*
X125889485Y-103470552D01*
X125889485Y-103470552D02*
X125841866Y-103422933D01*
X125841866Y-103422933D02*
X125794247Y-103327695D01*
X126127580Y-104946743D02*
X127127580Y-104946743D01*
X127127580Y-104946743D02*
X127127580Y-105327695D01*
X127127580Y-105327695D02*
X127079961Y-105422933D01*
X127079961Y-105422933D02*
X127032342Y-105470552D01*
X127032342Y-105470552D02*
X126937104Y-105518171D01*
X126937104Y-105518171D02*
X126794247Y-105518171D01*
X126794247Y-105518171D02*
X126699009Y-105470552D01*
X126699009Y-105470552D02*
X126651390Y-105422933D01*
X126651390Y-105422933D02*
X126603771Y-105327695D01*
X126603771Y-105327695D02*
X126603771Y-104946743D01*
X126127580Y-105946743D02*
X126794247Y-105946743D01*
X127127580Y-105946743D02*
X127079961Y-105899124D01*
X127079961Y-105899124D02*
X127032342Y-105946743D01*
X127032342Y-105946743D02*
X127079961Y-105994362D01*
X127079961Y-105994362D02*
X127127580Y-105946743D01*
X127127580Y-105946743D02*
X127032342Y-105946743D01*
X126127580Y-107184838D02*
X127127580Y-107184838D01*
X127127580Y-107184838D02*
X127127580Y-107565790D01*
X127127580Y-107565790D02*
X127079961Y-107661028D01*
X127079961Y-107661028D02*
X127032342Y-107708647D01*
X127032342Y-107708647D02*
X126937104Y-107756266D01*
X126937104Y-107756266D02*
X126794247Y-107756266D01*
X126794247Y-107756266D02*
X126699009Y-107708647D01*
X126699009Y-107708647D02*
X126651390Y-107661028D01*
X126651390Y-107661028D02*
X126603771Y-107565790D01*
X126603771Y-107565790D02*
X126603771Y-107184838D01*
X126127580Y-108184838D02*
X126794247Y-108184838D01*
X127127580Y-108184838D02*
X127079961Y-108137219D01*
X127079961Y-108137219D02*
X127032342Y-108184838D01*
X127032342Y-108184838D02*
X127079961Y-108232457D01*
X127079961Y-108232457D02*
X127127580Y-108184838D01*
X127127580Y-108184838D02*
X127032342Y-108184838D01*
X126175200Y-109089599D02*
X126127580Y-108994361D01*
X126127580Y-108994361D02*
X126127580Y-108803885D01*
X126127580Y-108803885D02*
X126175200Y-108708647D01*
X126175200Y-108708647D02*
X126222819Y-108661028D01*
X126222819Y-108661028D02*
X126318057Y-108613409D01*
X126318057Y-108613409D02*
X126603771Y-108613409D01*
X126603771Y-108613409D02*
X126699009Y-108661028D01*
X126699009Y-108661028D02*
X126746628Y-108708647D01*
X126746628Y-108708647D02*
X126794247Y-108803885D01*
X126794247Y-108803885D02*
X126794247Y-108994361D01*
X126794247Y-108994361D02*
X126746628Y-109089599D01*
X126127580Y-109661028D02*
X126175200Y-109565790D01*
X126175200Y-109565790D02*
X126222819Y-109518171D01*
X126222819Y-109518171D02*
X126318057Y-109470552D01*
X126318057Y-109470552D02*
X126603771Y-109470552D01*
X126603771Y-109470552D02*
X126699009Y-109518171D01*
X126699009Y-109518171D02*
X126746628Y-109565790D01*
X126746628Y-109565790D02*
X126794247Y-109661028D01*
X126794247Y-109661028D02*
X126794247Y-109803885D01*
X126794247Y-109803885D02*
X126746628Y-109899123D01*
X126746628Y-109899123D02*
X126699009Y-109946742D01*
X126699009Y-109946742D02*
X126603771Y-109994361D01*
X126603771Y-109994361D02*
X126318057Y-109994361D01*
X126318057Y-109994361D02*
X126222819Y-109946742D01*
X126222819Y-109946742D02*
X126175200Y-109899123D01*
X126175200Y-109899123D02*
X126127580Y-109803885D01*
X126127580Y-109803885D02*
X126127580Y-109661028D01*
X127127580Y-111089600D02*
X126127580Y-111327695D01*
X126127580Y-111327695D02*
X126841866Y-111518171D01*
X126841866Y-111518171D02*
X126127580Y-111708647D01*
X126127580Y-111708647D02*
X127127580Y-111946743D01*
D11*
X107840225Y-68457341D02*
X107697368Y-68385912D01*
X107697368Y-68385912D02*
X107483082Y-68385912D01*
X107483082Y-68385912D02*
X107268796Y-68457341D01*
X107268796Y-68457341D02*
X107125939Y-68600198D01*
X107125939Y-68600198D02*
X107054510Y-68743055D01*
X107054510Y-68743055D02*
X106983082Y-69028769D01*
X106983082Y-69028769D02*
X106983082Y-69243055D01*
X106983082Y-69243055D02*
X107054510Y-69528769D01*
X107054510Y-69528769D02*
X107125939Y-69671626D01*
X107125939Y-69671626D02*
X107268796Y-69814484D01*
X107268796Y-69814484D02*
X107483082Y-69885912D01*
X107483082Y-69885912D02*
X107625939Y-69885912D01*
X107625939Y-69885912D02*
X107840225Y-69814484D01*
X107840225Y-69814484D02*
X107911653Y-69743055D01*
X107911653Y-69743055D02*
X107911653Y-69243055D01*
X107911653Y-69243055D02*
X107625939Y-69243055D01*
X108554510Y-69885912D02*
X108554510Y-68385912D01*
X108554510Y-68385912D02*
X109411653Y-69885912D01*
X109411653Y-69885912D02*
X109411653Y-68385912D01*
X110125939Y-69885912D02*
X110125939Y-68385912D01*
X110125939Y-68385912D02*
X110483082Y-68385912D01*
X110483082Y-68385912D02*
X110697368Y-68457341D01*
X110697368Y-68457341D02*
X110840225Y-68600198D01*
X110840225Y-68600198D02*
X110911654Y-68743055D01*
X110911654Y-68743055D02*
X110983082Y-69028769D01*
X110983082Y-69028769D02*
X110983082Y-69243055D01*
X110983082Y-69243055D02*
X110911654Y-69528769D01*
X110911654Y-69528769D02*
X110840225Y-69671626D01*
X110840225Y-69671626D02*
X110697368Y-69814484D01*
X110697368Y-69814484D02*
X110483082Y-69885912D01*
X110483082Y-69885912D02*
X110125939Y-69885912D01*
X106983082Y-72229400D02*
X107197368Y-72300828D01*
X107197368Y-72300828D02*
X107554510Y-72300828D01*
X107554510Y-72300828D02*
X107697368Y-72229400D01*
X107697368Y-72229400D02*
X107768796Y-72157971D01*
X107768796Y-72157971D02*
X107840225Y-72015114D01*
X107840225Y-72015114D02*
X107840225Y-71872257D01*
X107840225Y-71872257D02*
X107768796Y-71729400D01*
X107768796Y-71729400D02*
X107697368Y-71657971D01*
X107697368Y-71657971D02*
X107554510Y-71586542D01*
X107554510Y-71586542D02*
X107268796Y-71515114D01*
X107268796Y-71515114D02*
X107125939Y-71443685D01*
X107125939Y-71443685D02*
X107054510Y-71372257D01*
X107054510Y-71372257D02*
X106983082Y-71229400D01*
X106983082Y-71229400D02*
X106983082Y-71086542D01*
X106983082Y-71086542D02*
X107054510Y-70943685D01*
X107054510Y-70943685D02*
X107125939Y-70872257D01*
X107125939Y-70872257D02*
X107268796Y-70800828D01*
X107268796Y-70800828D02*
X107625939Y-70800828D01*
X107625939Y-70800828D02*
X107840225Y-70872257D01*
X108483081Y-72300828D02*
X108483081Y-70800828D01*
X108483081Y-70800828D02*
X108840224Y-70800828D01*
X108840224Y-70800828D02*
X109054510Y-70872257D01*
X109054510Y-70872257D02*
X109197367Y-71015114D01*
X109197367Y-71015114D02*
X109268796Y-71157971D01*
X109268796Y-71157971D02*
X109340224Y-71443685D01*
X109340224Y-71443685D02*
X109340224Y-71657971D01*
X109340224Y-71657971D02*
X109268796Y-71943685D01*
X109268796Y-71943685D02*
X109197367Y-72086542D01*
X109197367Y-72086542D02*
X109054510Y-72229400D01*
X109054510Y-72229400D02*
X108840224Y-72300828D01*
X108840224Y-72300828D02*
X108483081Y-72300828D01*
X109911653Y-71872257D02*
X110625939Y-71872257D01*
X109768796Y-72300828D02*
X110268796Y-70800828D01*
X110268796Y-70800828D02*
X110768796Y-72300828D01*
X107340225Y-55300828D02*
X107840225Y-56800828D01*
X107840225Y-56800828D02*
X108340225Y-55300828D01*
X108840224Y-56800828D02*
X108840224Y-55300828D01*
X109554510Y-56800828D02*
X109554510Y-55300828D01*
X109554510Y-55300828D02*
X110411653Y-56800828D01*
X110411653Y-56800828D02*
X110411653Y-55300828D01*
X107483082Y-85729400D02*
X107697368Y-85800828D01*
X107697368Y-85800828D02*
X108054510Y-85800828D01*
X108054510Y-85800828D02*
X108197368Y-85729400D01*
X108197368Y-85729400D02*
X108268796Y-85657971D01*
X108268796Y-85657971D02*
X108340225Y-85515114D01*
X108340225Y-85515114D02*
X108340225Y-85372257D01*
X108340225Y-85372257D02*
X108268796Y-85229400D01*
X108268796Y-85229400D02*
X108197368Y-85157971D01*
X108197368Y-85157971D02*
X108054510Y-85086542D01*
X108054510Y-85086542D02*
X107768796Y-85015114D01*
X107768796Y-85015114D02*
X107625939Y-84943685D01*
X107625939Y-84943685D02*
X107554510Y-84872257D01*
X107554510Y-84872257D02*
X107483082Y-84729400D01*
X107483082Y-84729400D02*
X107483082Y-84586542D01*
X107483082Y-84586542D02*
X107554510Y-84443685D01*
X107554510Y-84443685D02*
X107625939Y-84372257D01*
X107625939Y-84372257D02*
X107768796Y-84300828D01*
X107768796Y-84300828D02*
X108125939Y-84300828D01*
X108125939Y-84300828D02*
X108340225Y-84372257D01*
X109840224Y-85657971D02*
X109768796Y-85729400D01*
X109768796Y-85729400D02*
X109554510Y-85800828D01*
X109554510Y-85800828D02*
X109411653Y-85800828D01*
X109411653Y-85800828D02*
X109197367Y-85729400D01*
X109197367Y-85729400D02*
X109054510Y-85586542D01*
X109054510Y-85586542D02*
X108983081Y-85443685D01*
X108983081Y-85443685D02*
X108911653Y-85157971D01*
X108911653Y-85157971D02*
X108911653Y-84943685D01*
X108911653Y-84943685D02*
X108983081Y-84657971D01*
X108983081Y-84657971D02*
X109054510Y-84515114D01*
X109054510Y-84515114D02*
X109197367Y-84372257D01*
X109197367Y-84372257D02*
X109411653Y-84300828D01*
X109411653Y-84300828D02*
X109554510Y-84300828D01*
X109554510Y-84300828D02*
X109768796Y-84372257D01*
X109768796Y-84372257D02*
X109840224Y-84443685D01*
X111197367Y-85800828D02*
X110483081Y-85800828D01*
X110483081Y-85800828D02*
X110483081Y-84300828D01*
X117840225Y-131872257D02*
X117697368Y-131800828D01*
X117697368Y-131800828D02*
X117483082Y-131800828D01*
X117483082Y-131800828D02*
X117268796Y-131872257D01*
X117268796Y-131872257D02*
X117125939Y-132015114D01*
X117125939Y-132015114D02*
X117054510Y-132157971D01*
X117054510Y-132157971D02*
X116983082Y-132443685D01*
X116983082Y-132443685D02*
X116983082Y-132657971D01*
X116983082Y-132657971D02*
X117054510Y-132943685D01*
X117054510Y-132943685D02*
X117125939Y-133086542D01*
X117125939Y-133086542D02*
X117268796Y-133229400D01*
X117268796Y-133229400D02*
X117483082Y-133300828D01*
X117483082Y-133300828D02*
X117625939Y-133300828D01*
X117625939Y-133300828D02*
X117840225Y-133229400D01*
X117840225Y-133229400D02*
X117911653Y-133157971D01*
X117911653Y-133157971D02*
X117911653Y-132657971D01*
X117911653Y-132657971D02*
X117625939Y-132657971D01*
X118554510Y-133300828D02*
X118554510Y-131800828D01*
X118554510Y-131800828D02*
X119125939Y-131800828D01*
X119125939Y-131800828D02*
X119268796Y-131872257D01*
X119268796Y-131872257D02*
X119340225Y-131943685D01*
X119340225Y-131943685D02*
X119411653Y-132086542D01*
X119411653Y-132086542D02*
X119411653Y-132300828D01*
X119411653Y-132300828D02*
X119340225Y-132443685D01*
X119340225Y-132443685D02*
X119268796Y-132515114D01*
X119268796Y-132515114D02*
X119125939Y-132586542D01*
X119125939Y-132586542D02*
X118554510Y-132586542D01*
X120054510Y-133300828D02*
X120054510Y-131800828D01*
X121054511Y-131800828D02*
X121340225Y-131800828D01*
X121340225Y-131800828D02*
X121483082Y-131872257D01*
X121483082Y-131872257D02*
X121625939Y-132015114D01*
X121625939Y-132015114D02*
X121697368Y-132300828D01*
X121697368Y-132300828D02*
X121697368Y-132800828D01*
X121697368Y-132800828D02*
X121625939Y-133086542D01*
X121625939Y-133086542D02*
X121483082Y-133229400D01*
X121483082Y-133229400D02*
X121340225Y-133300828D01*
X121340225Y-133300828D02*
X121054511Y-133300828D01*
X121054511Y-133300828D02*
X120911654Y-133229400D01*
X120911654Y-133229400D02*
X120768796Y-133086542D01*
X120768796Y-133086542D02*
X120697368Y-132800828D01*
X120697368Y-132800828D02*
X120697368Y-132300828D01*
X120697368Y-132300828D02*
X120768796Y-132015114D01*
X120768796Y-132015114D02*
X120911654Y-131872257D01*
X120911654Y-131872257D02*
X121054511Y-131800828D01*
X123411654Y-131943685D02*
X123483082Y-131872257D01*
X123483082Y-131872257D02*
X123625940Y-131800828D01*
X123625940Y-131800828D02*
X123983082Y-131800828D01*
X123983082Y-131800828D02*
X124125940Y-131872257D01*
X124125940Y-131872257D02*
X124197368Y-131943685D01*
X124197368Y-131943685D02*
X124268797Y-132086542D01*
X124268797Y-132086542D02*
X124268797Y-132229400D01*
X124268797Y-132229400D02*
X124197368Y-132443685D01*
X124197368Y-132443685D02*
X123340225Y-133300828D01*
X123340225Y-133300828D02*
X124268797Y-133300828D01*
X125697368Y-133300828D02*
X124840225Y-133300828D01*
X125268796Y-133300828D02*
X125268796Y-131800828D01*
X125268796Y-131800828D02*
X125125939Y-132015114D01*
X125125939Y-132015114D02*
X124983082Y-132157971D01*
X124983082Y-132157971D02*
X124840225Y-132229400D01*
X127483081Y-133300828D02*
X127483081Y-131800828D01*
X127483081Y-131800828D02*
X127983081Y-132872257D01*
X127983081Y-132872257D02*
X128483081Y-131800828D01*
X128483081Y-131800828D02*
X128483081Y-133300828D01*
X129483082Y-131800828D02*
X129768796Y-131800828D01*
X129768796Y-131800828D02*
X129911653Y-131872257D01*
X129911653Y-131872257D02*
X130054510Y-132015114D01*
X130054510Y-132015114D02*
X130125939Y-132300828D01*
X130125939Y-132300828D02*
X130125939Y-132800828D01*
X130125939Y-132800828D02*
X130054510Y-133086542D01*
X130054510Y-133086542D02*
X129911653Y-133229400D01*
X129911653Y-133229400D02*
X129768796Y-133300828D01*
X129768796Y-133300828D02*
X129483082Y-133300828D01*
X129483082Y-133300828D02*
X129340225Y-133229400D01*
X129340225Y-133229400D02*
X129197367Y-133086542D01*
X129197367Y-133086542D02*
X129125939Y-132800828D01*
X129125939Y-132800828D02*
X129125939Y-132300828D01*
X129125939Y-132300828D02*
X129197367Y-132015114D01*
X129197367Y-132015114D02*
X129340225Y-131872257D01*
X129340225Y-131872257D02*
X129483082Y-131800828D01*
X130697368Y-133229400D02*
X130911654Y-133300828D01*
X130911654Y-133300828D02*
X131268796Y-133300828D01*
X131268796Y-133300828D02*
X131411654Y-133229400D01*
X131411654Y-133229400D02*
X131483082Y-133157971D01*
X131483082Y-133157971D02*
X131554511Y-133015114D01*
X131554511Y-133015114D02*
X131554511Y-132872257D01*
X131554511Y-132872257D02*
X131483082Y-132729400D01*
X131483082Y-132729400D02*
X131411654Y-132657971D01*
X131411654Y-132657971D02*
X131268796Y-132586542D01*
X131268796Y-132586542D02*
X130983082Y-132515114D01*
X130983082Y-132515114D02*
X130840225Y-132443685D01*
X130840225Y-132443685D02*
X130768796Y-132372257D01*
X130768796Y-132372257D02*
X130697368Y-132229400D01*
X130697368Y-132229400D02*
X130697368Y-132086542D01*
X130697368Y-132086542D02*
X130768796Y-131943685D01*
X130768796Y-131943685D02*
X130840225Y-131872257D01*
X130840225Y-131872257D02*
X130983082Y-131800828D01*
X130983082Y-131800828D02*
X131340225Y-131800828D01*
X131340225Y-131800828D02*
X131554511Y-131872257D01*
X132697367Y-132515114D02*
X132197367Y-132515114D01*
X132197367Y-133300828D02*
X132197367Y-131800828D01*
X132197367Y-131800828D02*
X132911653Y-131800828D01*
X133483081Y-132515114D02*
X133983081Y-132515114D01*
X134197367Y-133300828D02*
X133483081Y-133300828D01*
X133483081Y-133300828D02*
X133483081Y-131800828D01*
X133483081Y-131800828D02*
X134197367Y-131800828D01*
X134625939Y-131800828D02*
X135483082Y-131800828D01*
X135054510Y-133300828D02*
X135054510Y-131800828D01*
X117840225Y-133872257D02*
X117697368Y-133800828D01*
X117697368Y-133800828D02*
X117483082Y-133800828D01*
X117483082Y-133800828D02*
X117268796Y-133872257D01*
X117268796Y-133872257D02*
X117125939Y-134015114D01*
X117125939Y-134015114D02*
X117054510Y-134157971D01*
X117054510Y-134157971D02*
X116983082Y-134443685D01*
X116983082Y-134443685D02*
X116983082Y-134657971D01*
X116983082Y-134657971D02*
X117054510Y-134943685D01*
X117054510Y-134943685D02*
X117125939Y-135086542D01*
X117125939Y-135086542D02*
X117268796Y-135229400D01*
X117268796Y-135229400D02*
X117483082Y-135300828D01*
X117483082Y-135300828D02*
X117625939Y-135300828D01*
X117625939Y-135300828D02*
X117840225Y-135229400D01*
X117840225Y-135229400D02*
X117911653Y-135157971D01*
X117911653Y-135157971D02*
X117911653Y-134657971D01*
X117911653Y-134657971D02*
X117625939Y-134657971D01*
X118554510Y-135300828D02*
X118554510Y-133800828D01*
X118554510Y-133800828D02*
X119125939Y-133800828D01*
X119125939Y-133800828D02*
X119268796Y-133872257D01*
X119268796Y-133872257D02*
X119340225Y-133943685D01*
X119340225Y-133943685D02*
X119411653Y-134086542D01*
X119411653Y-134086542D02*
X119411653Y-134300828D01*
X119411653Y-134300828D02*
X119340225Y-134443685D01*
X119340225Y-134443685D02*
X119268796Y-134515114D01*
X119268796Y-134515114D02*
X119125939Y-134586542D01*
X119125939Y-134586542D02*
X118554510Y-134586542D01*
X120054510Y-135300828D02*
X120054510Y-133800828D01*
X121054511Y-133800828D02*
X121340225Y-133800828D01*
X121340225Y-133800828D02*
X121483082Y-133872257D01*
X121483082Y-133872257D02*
X121625939Y-134015114D01*
X121625939Y-134015114D02*
X121697368Y-134300828D01*
X121697368Y-134300828D02*
X121697368Y-134800828D01*
X121697368Y-134800828D02*
X121625939Y-135086542D01*
X121625939Y-135086542D02*
X121483082Y-135229400D01*
X121483082Y-135229400D02*
X121340225Y-135300828D01*
X121340225Y-135300828D02*
X121054511Y-135300828D01*
X121054511Y-135300828D02*
X120911654Y-135229400D01*
X120911654Y-135229400D02*
X120768796Y-135086542D01*
X120768796Y-135086542D02*
X120697368Y-134800828D01*
X120697368Y-134800828D02*
X120697368Y-134300828D01*
X120697368Y-134300828D02*
X120768796Y-134015114D01*
X120768796Y-134015114D02*
X120911654Y-133872257D01*
X120911654Y-133872257D02*
X121054511Y-133800828D01*
X124125940Y-134300828D02*
X124125940Y-135300828D01*
X123768797Y-133729400D02*
X123411654Y-134800828D01*
X123411654Y-134800828D02*
X124340225Y-134800828D01*
X125983082Y-135229400D02*
X126197368Y-135300828D01*
X126197368Y-135300828D02*
X126554510Y-135300828D01*
X126554510Y-135300828D02*
X126697368Y-135229400D01*
X126697368Y-135229400D02*
X126768796Y-135157971D01*
X126768796Y-135157971D02*
X126840225Y-135015114D01*
X126840225Y-135015114D02*
X126840225Y-134872257D01*
X126840225Y-134872257D02*
X126768796Y-134729400D01*
X126768796Y-134729400D02*
X126697368Y-134657971D01*
X126697368Y-134657971D02*
X126554510Y-134586542D01*
X126554510Y-134586542D02*
X126268796Y-134515114D01*
X126268796Y-134515114D02*
X126125939Y-134443685D01*
X126125939Y-134443685D02*
X126054510Y-134372257D01*
X126054510Y-134372257D02*
X125983082Y-134229400D01*
X125983082Y-134229400D02*
X125983082Y-134086542D01*
X125983082Y-134086542D02*
X126054510Y-133943685D01*
X126054510Y-133943685D02*
X126125939Y-133872257D01*
X126125939Y-133872257D02*
X126268796Y-133800828D01*
X126268796Y-133800828D02*
X126625939Y-133800828D01*
X126625939Y-133800828D02*
X126840225Y-133872257D01*
X127483081Y-135300828D02*
X127483081Y-133800828D01*
X127483081Y-133800828D02*
X127840224Y-133800828D01*
X127840224Y-133800828D02*
X128054510Y-133872257D01*
X128054510Y-133872257D02*
X128197367Y-134015114D01*
X128197367Y-134015114D02*
X128268796Y-134157971D01*
X128268796Y-134157971D02*
X128340224Y-134443685D01*
X128340224Y-134443685D02*
X128340224Y-134657971D01*
X128340224Y-134657971D02*
X128268796Y-134943685D01*
X128268796Y-134943685D02*
X128197367Y-135086542D01*
X128197367Y-135086542D02*
X128054510Y-135229400D01*
X128054510Y-135229400D02*
X127840224Y-135300828D01*
X127840224Y-135300828D02*
X127483081Y-135300828D01*
X128911653Y-134872257D02*
X129625939Y-134872257D01*
X128768796Y-135300828D02*
X129268796Y-133800828D01*
X129268796Y-133800828D02*
X129768796Y-135300828D01*
X117840225Y-135872257D02*
X117697368Y-135800828D01*
X117697368Y-135800828D02*
X117483082Y-135800828D01*
X117483082Y-135800828D02*
X117268796Y-135872257D01*
X117268796Y-135872257D02*
X117125939Y-136015114D01*
X117125939Y-136015114D02*
X117054510Y-136157971D01*
X117054510Y-136157971D02*
X116983082Y-136443685D01*
X116983082Y-136443685D02*
X116983082Y-136657971D01*
X116983082Y-136657971D02*
X117054510Y-136943685D01*
X117054510Y-136943685D02*
X117125939Y-137086542D01*
X117125939Y-137086542D02*
X117268796Y-137229400D01*
X117268796Y-137229400D02*
X117483082Y-137300828D01*
X117483082Y-137300828D02*
X117625939Y-137300828D01*
X117625939Y-137300828D02*
X117840225Y-137229400D01*
X117840225Y-137229400D02*
X117911653Y-137157971D01*
X117911653Y-137157971D02*
X117911653Y-136657971D01*
X117911653Y-136657971D02*
X117625939Y-136657971D01*
X118554510Y-137300828D02*
X118554510Y-135800828D01*
X118554510Y-135800828D02*
X119125939Y-135800828D01*
X119125939Y-135800828D02*
X119268796Y-135872257D01*
X119268796Y-135872257D02*
X119340225Y-135943685D01*
X119340225Y-135943685D02*
X119411653Y-136086542D01*
X119411653Y-136086542D02*
X119411653Y-136300828D01*
X119411653Y-136300828D02*
X119340225Y-136443685D01*
X119340225Y-136443685D02*
X119268796Y-136515114D01*
X119268796Y-136515114D02*
X119125939Y-136586542D01*
X119125939Y-136586542D02*
X118554510Y-136586542D01*
X120054510Y-137300828D02*
X120054510Y-135800828D01*
X121054511Y-135800828D02*
X121340225Y-135800828D01*
X121340225Y-135800828D02*
X121483082Y-135872257D01*
X121483082Y-135872257D02*
X121625939Y-136015114D01*
X121625939Y-136015114D02*
X121697368Y-136300828D01*
X121697368Y-136300828D02*
X121697368Y-136800828D01*
X121697368Y-136800828D02*
X121625939Y-137086542D01*
X121625939Y-137086542D02*
X121483082Y-137229400D01*
X121483082Y-137229400D02*
X121340225Y-137300828D01*
X121340225Y-137300828D02*
X121054511Y-137300828D01*
X121054511Y-137300828D02*
X120911654Y-137229400D01*
X120911654Y-137229400D02*
X120768796Y-137086542D01*
X120768796Y-137086542D02*
X120697368Y-136800828D01*
X120697368Y-136800828D02*
X120697368Y-136300828D01*
X120697368Y-136300828D02*
X120768796Y-136015114D01*
X120768796Y-136015114D02*
X120911654Y-135872257D01*
X120911654Y-135872257D02*
X121054511Y-135800828D01*
X124197368Y-135800828D02*
X123483082Y-135800828D01*
X123483082Y-135800828D02*
X123411654Y-136515114D01*
X123411654Y-136515114D02*
X123483082Y-136443685D01*
X123483082Y-136443685D02*
X123625940Y-136372257D01*
X123625940Y-136372257D02*
X123983082Y-136372257D01*
X123983082Y-136372257D02*
X124125940Y-136443685D01*
X124125940Y-136443685D02*
X124197368Y-136515114D01*
X124197368Y-136515114D02*
X124268797Y-136657971D01*
X124268797Y-136657971D02*
X124268797Y-137015114D01*
X124268797Y-137015114D02*
X124197368Y-137157971D01*
X124197368Y-137157971D02*
X124125940Y-137229400D01*
X124125940Y-137229400D02*
X123983082Y-137300828D01*
X123983082Y-137300828D02*
X123625940Y-137300828D01*
X123625940Y-137300828D02*
X123483082Y-137229400D01*
X123483082Y-137229400D02*
X123411654Y-137157971D01*
X125983082Y-137229400D02*
X126197368Y-137300828D01*
X126197368Y-137300828D02*
X126554510Y-137300828D01*
X126554510Y-137300828D02*
X126697368Y-137229400D01*
X126697368Y-137229400D02*
X126768796Y-137157971D01*
X126768796Y-137157971D02*
X126840225Y-137015114D01*
X126840225Y-137015114D02*
X126840225Y-136872257D01*
X126840225Y-136872257D02*
X126768796Y-136729400D01*
X126768796Y-136729400D02*
X126697368Y-136657971D01*
X126697368Y-136657971D02*
X126554510Y-136586542D01*
X126554510Y-136586542D02*
X126268796Y-136515114D01*
X126268796Y-136515114D02*
X126125939Y-136443685D01*
X126125939Y-136443685D02*
X126054510Y-136372257D01*
X126054510Y-136372257D02*
X125983082Y-136229400D01*
X125983082Y-136229400D02*
X125983082Y-136086542D01*
X125983082Y-136086542D02*
X126054510Y-135943685D01*
X126054510Y-135943685D02*
X126125939Y-135872257D01*
X126125939Y-135872257D02*
X126268796Y-135800828D01*
X126268796Y-135800828D02*
X126625939Y-135800828D01*
X126625939Y-135800828D02*
X126840225Y-135872257D01*
X128340224Y-137157971D02*
X128268796Y-137229400D01*
X128268796Y-137229400D02*
X128054510Y-137300828D01*
X128054510Y-137300828D02*
X127911653Y-137300828D01*
X127911653Y-137300828D02*
X127697367Y-137229400D01*
X127697367Y-137229400D02*
X127554510Y-137086542D01*
X127554510Y-137086542D02*
X127483081Y-136943685D01*
X127483081Y-136943685D02*
X127411653Y-136657971D01*
X127411653Y-136657971D02*
X127411653Y-136443685D01*
X127411653Y-136443685D02*
X127483081Y-136157971D01*
X127483081Y-136157971D02*
X127554510Y-136015114D01*
X127554510Y-136015114D02*
X127697367Y-135872257D01*
X127697367Y-135872257D02*
X127911653Y-135800828D01*
X127911653Y-135800828D02*
X128054510Y-135800828D01*
X128054510Y-135800828D02*
X128268796Y-135872257D01*
X128268796Y-135872257D02*
X128340224Y-135943685D01*
X129697367Y-137300828D02*
X128983081Y-137300828D01*
X128983081Y-137300828D02*
X128983081Y-135800828D01*
X167840225Y-85372257D02*
X167697368Y-85300828D01*
X167697368Y-85300828D02*
X167483082Y-85300828D01*
X167483082Y-85300828D02*
X167268796Y-85372257D01*
X167268796Y-85372257D02*
X167125939Y-85515114D01*
X167125939Y-85515114D02*
X167054510Y-85657971D01*
X167054510Y-85657971D02*
X166983082Y-85943685D01*
X166983082Y-85943685D02*
X166983082Y-86157971D01*
X166983082Y-86157971D02*
X167054510Y-86443685D01*
X167054510Y-86443685D02*
X167125939Y-86586542D01*
X167125939Y-86586542D02*
X167268796Y-86729400D01*
X167268796Y-86729400D02*
X167483082Y-86800828D01*
X167483082Y-86800828D02*
X167625939Y-86800828D01*
X167625939Y-86800828D02*
X167840225Y-86729400D01*
X167840225Y-86729400D02*
X167911653Y-86657971D01*
X167911653Y-86657971D02*
X167911653Y-86157971D01*
X167911653Y-86157971D02*
X167625939Y-86157971D01*
X168554510Y-86800828D02*
X168554510Y-85300828D01*
X168554510Y-85300828D02*
X169411653Y-86800828D01*
X169411653Y-86800828D02*
X169411653Y-85300828D01*
X170125939Y-86800828D02*
X170125939Y-85300828D01*
X170125939Y-85300828D02*
X170483082Y-85300828D01*
X170483082Y-85300828D02*
X170697368Y-85372257D01*
X170697368Y-85372257D02*
X170840225Y-85515114D01*
X170840225Y-85515114D02*
X170911654Y-85657971D01*
X170911654Y-85657971D02*
X170983082Y-85943685D01*
X170983082Y-85943685D02*
X170983082Y-86157971D01*
X170983082Y-86157971D02*
X170911654Y-86443685D01*
X170911654Y-86443685D02*
X170840225Y-86586542D01*
X170840225Y-86586542D02*
X170697368Y-86729400D01*
X170697368Y-86729400D02*
X170483082Y-86800828D01*
X170483082Y-86800828D02*
X170125939Y-86800828D01*
X105984885Y-101054510D02*
X105913457Y-101268796D01*
X105913457Y-101268796D02*
X105842028Y-101340225D01*
X105842028Y-101340225D02*
X105699171Y-101411653D01*
X105699171Y-101411653D02*
X105484885Y-101411653D01*
X105484885Y-101411653D02*
X105342028Y-101340225D01*
X105342028Y-101340225D02*
X105270600Y-101268796D01*
X105270600Y-101268796D02*
X105199171Y-101125939D01*
X105199171Y-101125939D02*
X105199171Y-100554510D01*
X105199171Y-100554510D02*
X106699171Y-100554510D01*
X106699171Y-100554510D02*
X106699171Y-101054510D01*
X106699171Y-101054510D02*
X106627742Y-101197368D01*
X106627742Y-101197368D02*
X106556314Y-101268796D01*
X106556314Y-101268796D02*
X106413457Y-101340225D01*
X106413457Y-101340225D02*
X106270600Y-101340225D01*
X106270600Y-101340225D02*
X106127742Y-101268796D01*
X106127742Y-101268796D02*
X106056314Y-101197368D01*
X106056314Y-101197368D02*
X105984885Y-101054510D01*
X105984885Y-101054510D02*
X105984885Y-100554510D01*
X105199171Y-102054510D02*
X106699171Y-102054510D01*
X106699171Y-102054510D02*
X105627742Y-102554510D01*
X105627742Y-102554510D02*
X106699171Y-103054510D01*
X106699171Y-103054510D02*
X105199171Y-103054510D01*
X105984885Y-103768796D02*
X105984885Y-104268796D01*
X105199171Y-104483082D02*
X105199171Y-103768796D01*
X105199171Y-103768796D02*
X106699171Y-103768796D01*
X106699171Y-103768796D02*
X106699171Y-104483082D01*
X106556314Y-105054511D02*
X106627742Y-105125939D01*
X106627742Y-105125939D02*
X106699171Y-105268797D01*
X106699171Y-105268797D02*
X106699171Y-105625939D01*
X106699171Y-105625939D02*
X106627742Y-105768797D01*
X106627742Y-105768797D02*
X106556314Y-105840225D01*
X106556314Y-105840225D02*
X106413457Y-105911654D01*
X106413457Y-105911654D02*
X106270600Y-105911654D01*
X106270600Y-105911654D02*
X106056314Y-105840225D01*
X106056314Y-105840225D02*
X105199171Y-104983082D01*
X105199171Y-104983082D02*
X105199171Y-105911654D01*
X106056314Y-106768796D02*
X106127742Y-106625939D01*
X106127742Y-106625939D02*
X106199171Y-106554510D01*
X106199171Y-106554510D02*
X106342028Y-106483082D01*
X106342028Y-106483082D02*
X106413457Y-106483082D01*
X106413457Y-106483082D02*
X106556314Y-106554510D01*
X106556314Y-106554510D02*
X106627742Y-106625939D01*
X106627742Y-106625939D02*
X106699171Y-106768796D01*
X106699171Y-106768796D02*
X106699171Y-107054510D01*
X106699171Y-107054510D02*
X106627742Y-107197368D01*
X106627742Y-107197368D02*
X106556314Y-107268796D01*
X106556314Y-107268796D02*
X106413457Y-107340225D01*
X106413457Y-107340225D02*
X106342028Y-107340225D01*
X106342028Y-107340225D02*
X106199171Y-107268796D01*
X106199171Y-107268796D02*
X106127742Y-107197368D01*
X106127742Y-107197368D02*
X106056314Y-107054510D01*
X106056314Y-107054510D02*
X106056314Y-106768796D01*
X106056314Y-106768796D02*
X105984885Y-106625939D01*
X105984885Y-106625939D02*
X105913457Y-106554510D01*
X105913457Y-106554510D02*
X105770600Y-106483082D01*
X105770600Y-106483082D02*
X105484885Y-106483082D01*
X105484885Y-106483082D02*
X105342028Y-106554510D01*
X105342028Y-106554510D02*
X105270600Y-106625939D01*
X105270600Y-106625939D02*
X105199171Y-106768796D01*
X105199171Y-106768796D02*
X105199171Y-107054510D01*
X105199171Y-107054510D02*
X105270600Y-107197368D01*
X105270600Y-107197368D02*
X105342028Y-107268796D01*
X105342028Y-107268796D02*
X105484885Y-107340225D01*
X105484885Y-107340225D02*
X105770600Y-107340225D01*
X105770600Y-107340225D02*
X105913457Y-107268796D01*
X105913457Y-107268796D02*
X105984885Y-107197368D01*
X105984885Y-107197368D02*
X106056314Y-107054510D01*
X106699171Y-108268796D02*
X106699171Y-108411653D01*
X106699171Y-108411653D02*
X106627742Y-108554510D01*
X106627742Y-108554510D02*
X106556314Y-108625939D01*
X106556314Y-108625939D02*
X106413457Y-108697367D01*
X106413457Y-108697367D02*
X106127742Y-108768796D01*
X106127742Y-108768796D02*
X105770600Y-108768796D01*
X105770600Y-108768796D02*
X105484885Y-108697367D01*
X105484885Y-108697367D02*
X105342028Y-108625939D01*
X105342028Y-108625939D02*
X105270600Y-108554510D01*
X105270600Y-108554510D02*
X105199171Y-108411653D01*
X105199171Y-108411653D02*
X105199171Y-108268796D01*
X105199171Y-108268796D02*
X105270600Y-108125939D01*
X105270600Y-108125939D02*
X105342028Y-108054510D01*
X105342028Y-108054510D02*
X105484885Y-107983081D01*
X105484885Y-107983081D02*
X105770600Y-107911653D01*
X105770600Y-107911653D02*
X106127742Y-107911653D01*
X106127742Y-107911653D02*
X106413457Y-107983081D01*
X106413457Y-107983081D02*
X106556314Y-108054510D01*
X106556314Y-108054510D02*
X106627742Y-108125939D01*
X106627742Y-108125939D02*
X106699171Y-108268796D01*
X151260361Y-97173558D02*
X153260361Y-97173558D01*
X153260361Y-97173558D02*
X151831790Y-97840225D01*
X151831790Y-97840225D02*
X153260361Y-98506891D01*
X153260361Y-98506891D02*
X151260361Y-98506891D01*
X153260361Y-99840224D02*
X153260361Y-100221177D01*
X153260361Y-100221177D02*
X153165123Y-100411653D01*
X153165123Y-100411653D02*
X152974647Y-100602129D01*
X152974647Y-100602129D02*
X152593695Y-100697367D01*
X152593695Y-100697367D02*
X151927028Y-100697367D01*
X151927028Y-100697367D02*
X151546076Y-100602129D01*
X151546076Y-100602129D02*
X151355600Y-100411653D01*
X151355600Y-100411653D02*
X151260361Y-100221177D01*
X151260361Y-100221177D02*
X151260361Y-99840224D01*
X151260361Y-99840224D02*
X151355600Y-99649748D01*
X151355600Y-99649748D02*
X151546076Y-99459272D01*
X151546076Y-99459272D02*
X151927028Y-99364034D01*
X151927028Y-99364034D02*
X152593695Y-99364034D01*
X152593695Y-99364034D02*
X152974647Y-99459272D01*
X152974647Y-99459272D02*
X153165123Y-99649748D01*
X153165123Y-99649748D02*
X153260361Y-99840224D01*
X151355600Y-101459272D02*
X151260361Y-101744986D01*
X151260361Y-101744986D02*
X151260361Y-102221177D01*
X151260361Y-102221177D02*
X151355600Y-102411653D01*
X151355600Y-102411653D02*
X151450838Y-102506891D01*
X151450838Y-102506891D02*
X151641314Y-102602129D01*
X151641314Y-102602129D02*
X151831790Y-102602129D01*
X151831790Y-102602129D02*
X152022266Y-102506891D01*
X152022266Y-102506891D02*
X152117504Y-102411653D01*
X152117504Y-102411653D02*
X152212742Y-102221177D01*
X152212742Y-102221177D02*
X152307980Y-101840224D01*
X152307980Y-101840224D02*
X152403219Y-101649748D01*
X152403219Y-101649748D02*
X152498457Y-101554510D01*
X152498457Y-101554510D02*
X152688933Y-101459272D01*
X152688933Y-101459272D02*
X152879409Y-101459272D01*
X152879409Y-101459272D02*
X153069885Y-101554510D01*
X153069885Y-101554510D02*
X153165123Y-101649748D01*
X153165123Y-101649748D02*
X153260361Y-101840224D01*
X153260361Y-101840224D02*
X153260361Y-102316415D01*
X153260361Y-102316415D02*
X153165123Y-102602129D01*
X152307980Y-104125939D02*
X152307980Y-103459272D01*
X151260361Y-103459272D02*
X153260361Y-103459272D01*
X153260361Y-103459272D02*
X153260361Y-104411653D01*
X152307980Y-105173558D02*
X152307980Y-105840225D01*
X151260361Y-106125939D02*
X151260361Y-105173558D01*
X151260361Y-105173558D02*
X153260361Y-105173558D01*
X153260361Y-105173558D02*
X153260361Y-106125939D01*
X153260361Y-106697368D02*
X153260361Y-107840225D01*
X151260361Y-107268796D02*
X153260361Y-107268796D01*
D12*
X123309524Y-57736655D02*
X123309524Y-54403321D01*
X123309524Y-54879512D02*
X123547619Y-54641417D01*
X123547619Y-54641417D02*
X124023809Y-54403321D01*
X124023809Y-54403321D02*
X124738095Y-54403321D01*
X124738095Y-54403321D02*
X125214286Y-54641417D01*
X125214286Y-54641417D02*
X125452381Y-55117607D01*
X125452381Y-55117607D02*
X125452381Y-57736655D01*
X125452381Y-55117607D02*
X125690476Y-54641417D01*
X125690476Y-54641417D02*
X126166667Y-54403321D01*
X126166667Y-54403321D02*
X126880952Y-54403321D01*
X126880952Y-54403321D02*
X127357143Y-54641417D01*
X127357143Y-54641417D02*
X127595238Y-55117607D01*
X127595238Y-55117607D02*
X127595238Y-57736655D01*
X129976191Y-57736655D02*
X129976191Y-54403321D01*
X129976191Y-52736655D02*
X129738095Y-52974750D01*
X129738095Y-52974750D02*
X129976191Y-53212845D01*
X129976191Y-53212845D02*
X130214286Y-52974750D01*
X130214286Y-52974750D02*
X129976191Y-52736655D01*
X129976191Y-52736655D02*
X129976191Y-53212845D01*
X132357143Y-54403321D02*
X132357143Y-57736655D01*
X132357143Y-54879512D02*
X132595238Y-54641417D01*
X132595238Y-54641417D02*
X133071428Y-54403321D01*
X133071428Y-54403321D02*
X133785714Y-54403321D01*
X133785714Y-54403321D02*
X134261905Y-54641417D01*
X134261905Y-54641417D02*
X134500000Y-55117607D01*
X134500000Y-55117607D02*
X134500000Y-57736655D01*
X136880953Y-57736655D02*
X136880953Y-54403321D01*
X136880953Y-52736655D02*
X136642857Y-52974750D01*
X136642857Y-52974750D02*
X136880953Y-53212845D01*
X136880953Y-53212845D02*
X137119048Y-52974750D01*
X137119048Y-52974750D02*
X136880953Y-52736655D01*
X136880953Y-52736655D02*
X136880953Y-53212845D01*
X142119048Y-57736655D02*
X140452381Y-55355702D01*
X139261905Y-57736655D02*
X139261905Y-52736655D01*
X139261905Y-52736655D02*
X141166667Y-52736655D01*
X141166667Y-52736655D02*
X141642857Y-52974750D01*
X141642857Y-52974750D02*
X141880952Y-53212845D01*
X141880952Y-53212845D02*
X142119048Y-53689036D01*
X142119048Y-53689036D02*
X142119048Y-54403321D01*
X142119048Y-54403321D02*
X141880952Y-54879512D01*
X141880952Y-54879512D02*
X141642857Y-55117607D01*
X141642857Y-55117607D02*
X141166667Y-55355702D01*
X141166667Y-55355702D02*
X139261905Y-55355702D01*
X144023809Y-56308083D02*
X146404762Y-56308083D01*
X143547619Y-57736655D02*
X145214286Y-52736655D01*
X145214286Y-52736655D02*
X146880952Y-57736655D01*
X151404762Y-57260464D02*
X151166666Y-57498560D01*
X151166666Y-57498560D02*
X150452381Y-57736655D01*
X150452381Y-57736655D02*
X149976190Y-57736655D01*
X149976190Y-57736655D02*
X149261904Y-57498560D01*
X149261904Y-57498560D02*
X148785714Y-57022369D01*
X148785714Y-57022369D02*
X148547619Y-56546179D01*
X148547619Y-56546179D02*
X148309523Y-55593798D01*
X148309523Y-55593798D02*
X148309523Y-54879512D01*
X148309523Y-54879512D02*
X148547619Y-53927131D01*
X148547619Y-53927131D02*
X148785714Y-53450940D01*
X148785714Y-53450940D02*
X149261904Y-52974750D01*
X149261904Y-52974750D02*
X149976190Y-52736655D01*
X149976190Y-52736655D02*
X150452381Y-52736655D01*
X150452381Y-52736655D02*
X151166666Y-52974750D01*
X151166666Y-52974750D02*
X151404762Y-53212845D01*
X153547619Y-55117607D02*
X155214285Y-55117607D01*
X155928571Y-57736655D02*
X153547619Y-57736655D01*
X153547619Y-57736655D02*
X153547619Y-52736655D01*
X153547619Y-52736655D02*
X155928571Y-52736655D01*
X160928572Y-57736655D02*
X159261905Y-55355702D01*
X158071429Y-57736655D02*
X158071429Y-52736655D01*
X158071429Y-52736655D02*
X159976191Y-52736655D01*
X159976191Y-52736655D02*
X160452381Y-52974750D01*
X160452381Y-52974750D02*
X160690476Y-53212845D01*
X160690476Y-53212845D02*
X160928572Y-53689036D01*
X160928572Y-53689036D02*
X160928572Y-54403321D01*
X160928572Y-54403321D02*
X160690476Y-54879512D01*
X160690476Y-54879512D02*
X160452381Y-55117607D01*
X160452381Y-55117607D02*
X159976191Y-55355702D01*
X159976191Y-55355702D02*
X158071429Y-55355702D01*
X119261903Y-65310184D02*
X119023807Y-65548280D01*
X119023807Y-65548280D02*
X118309522Y-65786375D01*
X118309522Y-65786375D02*
X117833331Y-65786375D01*
X117833331Y-65786375D02*
X117119045Y-65548280D01*
X117119045Y-65548280D02*
X116642855Y-65072089D01*
X116642855Y-65072089D02*
X116404760Y-64595899D01*
X116404760Y-64595899D02*
X116166664Y-63643518D01*
X116166664Y-63643518D02*
X116166664Y-62929232D01*
X116166664Y-62929232D02*
X116404760Y-61976851D01*
X116404760Y-61976851D02*
X116642855Y-61500660D01*
X116642855Y-61500660D02*
X117119045Y-61024470D01*
X117119045Y-61024470D02*
X117833331Y-60786375D01*
X117833331Y-60786375D02*
X118309522Y-60786375D01*
X118309522Y-60786375D02*
X119023807Y-61024470D01*
X119023807Y-61024470D02*
X119261903Y-61262565D01*
X122119045Y-65786375D02*
X121642855Y-65548280D01*
X121642855Y-65548280D02*
X121404760Y-65310184D01*
X121404760Y-65310184D02*
X121166664Y-64833994D01*
X121166664Y-64833994D02*
X121166664Y-63405422D01*
X121166664Y-63405422D02*
X121404760Y-62929232D01*
X121404760Y-62929232D02*
X121642855Y-62691137D01*
X121642855Y-62691137D02*
X122119045Y-62453041D01*
X122119045Y-62453041D02*
X122833331Y-62453041D01*
X122833331Y-62453041D02*
X123309522Y-62691137D01*
X123309522Y-62691137D02*
X123547617Y-62929232D01*
X123547617Y-62929232D02*
X123785712Y-63405422D01*
X123785712Y-63405422D02*
X123785712Y-64833994D01*
X123785712Y-64833994D02*
X123547617Y-65310184D01*
X123547617Y-65310184D02*
X123309522Y-65548280D01*
X123309522Y-65548280D02*
X122833331Y-65786375D01*
X122833331Y-65786375D02*
X122119045Y-65786375D01*
X126642855Y-65786375D02*
X126166665Y-65548280D01*
X126166665Y-65548280D02*
X125928570Y-65310184D01*
X125928570Y-65310184D02*
X125690474Y-64833994D01*
X125690474Y-64833994D02*
X125690474Y-63405422D01*
X125690474Y-63405422D02*
X125928570Y-62929232D01*
X125928570Y-62929232D02*
X126166665Y-62691137D01*
X126166665Y-62691137D02*
X126642855Y-62453041D01*
X126642855Y-62453041D02*
X127357141Y-62453041D01*
X127357141Y-62453041D02*
X127833332Y-62691137D01*
X127833332Y-62691137D02*
X128071427Y-62929232D01*
X128071427Y-62929232D02*
X128309522Y-63405422D01*
X128309522Y-63405422D02*
X128309522Y-64833994D01*
X128309522Y-64833994D02*
X128071427Y-65310184D01*
X128071427Y-65310184D02*
X127833332Y-65548280D01*
X127833332Y-65548280D02*
X127357141Y-65786375D01*
X127357141Y-65786375D02*
X126642855Y-65786375D01*
X131166665Y-65786375D02*
X130690475Y-65548280D01*
X130690475Y-65548280D02*
X130452380Y-65072089D01*
X130452380Y-65072089D02*
X130452380Y-60786375D01*
X133071428Y-65786375D02*
X133071428Y-62453041D01*
X133071428Y-60786375D02*
X132833332Y-61024470D01*
X132833332Y-61024470D02*
X133071428Y-61262565D01*
X133071428Y-61262565D02*
X133309523Y-61024470D01*
X133309523Y-61024470D02*
X133071428Y-60786375D01*
X133071428Y-60786375D02*
X133071428Y-61262565D01*
X135452380Y-62453041D02*
X135452380Y-65786375D01*
X135452380Y-62929232D02*
X135690475Y-62691137D01*
X135690475Y-62691137D02*
X136166665Y-62453041D01*
X136166665Y-62453041D02*
X136880951Y-62453041D01*
X136880951Y-62453041D02*
X137357142Y-62691137D01*
X137357142Y-62691137D02*
X137595237Y-63167327D01*
X137595237Y-63167327D02*
X137595237Y-65786375D01*
X142119047Y-62453041D02*
X142119047Y-66500660D01*
X142119047Y-66500660D02*
X141880952Y-66976851D01*
X141880952Y-66976851D02*
X141642856Y-67214946D01*
X141642856Y-67214946D02*
X141166666Y-67453041D01*
X141166666Y-67453041D02*
X140452380Y-67453041D01*
X140452380Y-67453041D02*
X139976190Y-67214946D01*
X142119047Y-65548280D02*
X141642856Y-65786375D01*
X141642856Y-65786375D02*
X140690475Y-65786375D01*
X140690475Y-65786375D02*
X140214285Y-65548280D01*
X140214285Y-65548280D02*
X139976190Y-65310184D01*
X139976190Y-65310184D02*
X139738094Y-64833994D01*
X139738094Y-64833994D02*
X139738094Y-63405422D01*
X139738094Y-63405422D02*
X139976190Y-62929232D01*
X139976190Y-62929232D02*
X140214285Y-62691137D01*
X140214285Y-62691137D02*
X140690475Y-62453041D01*
X140690475Y-62453041D02*
X141642856Y-62453041D01*
X141642856Y-62453041D02*
X142119047Y-62691137D01*
X149976190Y-63167327D02*
X150690476Y-63405422D01*
X150690476Y-63405422D02*
X150928571Y-63643518D01*
X150928571Y-63643518D02*
X151166667Y-64119708D01*
X151166667Y-64119708D02*
X151166667Y-64833994D01*
X151166667Y-64833994D02*
X150928571Y-65310184D01*
X150928571Y-65310184D02*
X150690476Y-65548280D01*
X150690476Y-65548280D02*
X150214286Y-65786375D01*
X150214286Y-65786375D02*
X148309524Y-65786375D01*
X148309524Y-65786375D02*
X148309524Y-60786375D01*
X148309524Y-60786375D02*
X149976190Y-60786375D01*
X149976190Y-60786375D02*
X150452381Y-61024470D01*
X150452381Y-61024470D02*
X150690476Y-61262565D01*
X150690476Y-61262565D02*
X150928571Y-61738756D01*
X150928571Y-61738756D02*
X150928571Y-62214946D01*
X150928571Y-62214946D02*
X150690476Y-62691137D01*
X150690476Y-62691137D02*
X150452381Y-62929232D01*
X150452381Y-62929232D02*
X149976190Y-63167327D01*
X149976190Y-63167327D02*
X148309524Y-63167327D01*
X154023809Y-65786375D02*
X153547619Y-65548280D01*
X153547619Y-65548280D02*
X153309524Y-65310184D01*
X153309524Y-65310184D02*
X153071428Y-64833994D01*
X153071428Y-64833994D02*
X153071428Y-63405422D01*
X153071428Y-63405422D02*
X153309524Y-62929232D01*
X153309524Y-62929232D02*
X153547619Y-62691137D01*
X153547619Y-62691137D02*
X154023809Y-62453041D01*
X154023809Y-62453041D02*
X154738095Y-62453041D01*
X154738095Y-62453041D02*
X155214286Y-62691137D01*
X155214286Y-62691137D02*
X155452381Y-62929232D01*
X155452381Y-62929232D02*
X155690476Y-63405422D01*
X155690476Y-63405422D02*
X155690476Y-64833994D01*
X155690476Y-64833994D02*
X155452381Y-65310184D01*
X155452381Y-65310184D02*
X155214286Y-65548280D01*
X155214286Y-65548280D02*
X154738095Y-65786375D01*
X154738095Y-65786375D02*
X154023809Y-65786375D01*
X159976191Y-65786375D02*
X159976191Y-63167327D01*
X159976191Y-63167327D02*
X159738096Y-62691137D01*
X159738096Y-62691137D02*
X159261905Y-62453041D01*
X159261905Y-62453041D02*
X158309524Y-62453041D01*
X158309524Y-62453041D02*
X157833334Y-62691137D01*
X159976191Y-65548280D02*
X159500000Y-65786375D01*
X159500000Y-65786375D02*
X158309524Y-65786375D01*
X158309524Y-65786375D02*
X157833334Y-65548280D01*
X157833334Y-65548280D02*
X157595238Y-65072089D01*
X157595238Y-65072089D02*
X157595238Y-64595899D01*
X157595238Y-64595899D02*
X157833334Y-64119708D01*
X157833334Y-64119708D02*
X158309524Y-63881613D01*
X158309524Y-63881613D02*
X159500000Y-63881613D01*
X159500000Y-63881613D02*
X159976191Y-63643518D01*
X162357144Y-65786375D02*
X162357144Y-62453041D01*
X162357144Y-63405422D02*
X162595239Y-62929232D01*
X162595239Y-62929232D02*
X162833334Y-62691137D01*
X162833334Y-62691137D02*
X163309525Y-62453041D01*
X163309525Y-62453041D02*
X163785715Y-62453041D01*
X167595239Y-65786375D02*
X167595239Y-60786375D01*
X167595239Y-65548280D02*
X167119048Y-65786375D01*
X167119048Y-65786375D02*
X166166667Y-65786375D01*
X166166667Y-65786375D02*
X165690477Y-65548280D01*
X165690477Y-65548280D02*
X165452382Y-65310184D01*
X165452382Y-65310184D02*
X165214286Y-64833994D01*
X165214286Y-64833994D02*
X165214286Y-63405422D01*
X165214286Y-63405422D02*
X165452382Y-62929232D01*
X165452382Y-62929232D02*
X165690477Y-62691137D01*
X165690477Y-62691137D02*
X166166667Y-62453041D01*
X166166667Y-62453041D02*
X167119048Y-62453041D01*
X167119048Y-62453041D02*
X167595239Y-62691137D01*
X137952381Y-68836095D02*
X139619048Y-73836095D01*
X139619048Y-73836095D02*
X141285714Y-68836095D01*
X145571428Y-73836095D02*
X142714285Y-73836095D01*
X144142857Y-73836095D02*
X144142857Y-68836095D01*
X144142857Y-68836095D02*
X143666666Y-69550380D01*
X143666666Y-69550380D02*
X143190476Y-70026571D01*
X143190476Y-70026571D02*
X142714285Y-70264666D01*
D13*
X152150057Y-102095238D02*
X152102438Y-102190476D01*
X152102438Y-102190476D02*
X152007200Y-102285714D01*
X152007200Y-102285714D02*
X151864342Y-102428571D01*
X151864342Y-102428571D02*
X151816723Y-102523809D01*
X151816723Y-102523809D02*
X151816723Y-102619047D01*
X152054819Y-102571428D02*
X152007200Y-102666666D01*
X152007200Y-102666666D02*
X151911961Y-102761904D01*
X151911961Y-102761904D02*
X151721485Y-102809523D01*
X151721485Y-102809523D02*
X151388152Y-102809523D01*
X151388152Y-102809523D02*
X151197676Y-102761904D01*
X151197676Y-102761904D02*
X151102438Y-102666666D01*
X151102438Y-102666666D02*
X151054819Y-102571428D01*
X151054819Y-102571428D02*
X151054819Y-102380952D01*
X151054819Y-102380952D02*
X151102438Y-102285714D01*
X151102438Y-102285714D02*
X151197676Y-102190476D01*
X151197676Y-102190476D02*
X151388152Y-102142857D01*
X151388152Y-102142857D02*
X151721485Y-102142857D01*
X151721485Y-102142857D02*
X151911961Y-102190476D01*
X151911961Y-102190476D02*
X152007200Y-102285714D01*
X152007200Y-102285714D02*
X152054819Y-102380952D01*
X152054819Y-102380952D02*
X152054819Y-102571428D01*
X152054819Y-101190476D02*
X152054819Y-101761904D01*
X152054819Y-101476190D02*
X151054819Y-101476190D01*
X151054819Y-101476190D02*
X151197676Y-101571428D01*
X151197676Y-101571428D02*
X151292914Y-101666666D01*
X151292914Y-101666666D02*
X151340533Y-101761904D01*
X148128333Y-87599819D02*
X147795000Y-87123628D01*
X147556905Y-87599819D02*
X147556905Y-86599819D01*
X147556905Y-86599819D02*
X147937857Y-86599819D01*
X147937857Y-86599819D02*
X148033095Y-86647438D01*
X148033095Y-86647438D02*
X148080714Y-86695057D01*
X148080714Y-86695057D02*
X148128333Y-86790295D01*
X148128333Y-86790295D02*
X148128333Y-86933152D01*
X148128333Y-86933152D02*
X148080714Y-87028390D01*
X148080714Y-87028390D02*
X148033095Y-87076009D01*
X148033095Y-87076009D02*
X147937857Y-87123628D01*
X147937857Y-87123628D02*
X147556905Y-87123628D01*
X148509286Y-86695057D02*
X148556905Y-86647438D01*
X148556905Y-86647438D02*
X148652143Y-86599819D01*
X148652143Y-86599819D02*
X148890238Y-86599819D01*
X148890238Y-86599819D02*
X148985476Y-86647438D01*
X148985476Y-86647438D02*
X149033095Y-86695057D01*
X149033095Y-86695057D02*
X149080714Y-86790295D01*
X149080714Y-86790295D02*
X149080714Y-86885533D01*
X149080714Y-86885533D02*
X149033095Y-87028390D01*
X149033095Y-87028390D02*
X148461667Y-87599819D01*
X148461667Y-87599819D02*
X149080714Y-87599819D01*
X111102319Y-63328333D02*
X111816604Y-63328333D01*
X111816604Y-63328333D02*
X111959461Y-63375952D01*
X111959461Y-63375952D02*
X112054700Y-63471190D01*
X112054700Y-63471190D02*
X112102319Y-63614047D01*
X112102319Y-63614047D02*
X112102319Y-63709285D01*
X112102319Y-62328333D02*
X112102319Y-62899761D01*
X112102319Y-62614047D02*
X111102319Y-62614047D01*
X111102319Y-62614047D02*
X111245176Y-62709285D01*
X111245176Y-62709285D02*
X111340414Y-62804523D01*
X111340414Y-62804523D02*
X111388033Y-62899761D01*
X148128333Y-84649819D02*
X147795000Y-84173628D01*
X147556905Y-84649819D02*
X147556905Y-83649819D01*
X147556905Y-83649819D02*
X147937857Y-83649819D01*
X147937857Y-83649819D02*
X148033095Y-83697438D01*
X148033095Y-83697438D02*
X148080714Y-83745057D01*
X148080714Y-83745057D02*
X148128333Y-83840295D01*
X148128333Y-83840295D02*
X148128333Y-83983152D01*
X148128333Y-83983152D02*
X148080714Y-84078390D01*
X148080714Y-84078390D02*
X148033095Y-84126009D01*
X148033095Y-84126009D02*
X147937857Y-84173628D01*
X147937857Y-84173628D02*
X147556905Y-84173628D01*
X149080714Y-84649819D02*
X148509286Y-84649819D01*
X148795000Y-84649819D02*
X148795000Y-83649819D01*
X148795000Y-83649819D02*
X148699762Y-83792676D01*
X148699762Y-83792676D02*
X148604524Y-83887914D01*
X148604524Y-83887914D02*
X148509286Y-83935533D01*
X111274819Y-78373333D02*
X111989104Y-78373333D01*
X111989104Y-78373333D02*
X112131961Y-78420952D01*
X112131961Y-78420952D02*
X112227200Y-78516190D01*
X112227200Y-78516190D02*
X112274819Y-78659047D01*
X112274819Y-78659047D02*
X112274819Y-78754285D01*
X111274819Y-77992380D02*
X111274819Y-77373333D01*
X111274819Y-77373333D02*
X111655771Y-77706666D01*
X111655771Y-77706666D02*
X111655771Y-77563809D01*
X111655771Y-77563809D02*
X111703390Y-77468571D01*
X111703390Y-77468571D02*
X111751009Y-77420952D01*
X111751009Y-77420952D02*
X111846247Y-77373333D01*
X111846247Y-77373333D02*
X112084342Y-77373333D01*
X112084342Y-77373333D02*
X112179580Y-77420952D01*
X112179580Y-77420952D02*
X112227200Y-77468571D01*
X112227200Y-77468571D02*
X112274819Y-77563809D01*
X112274819Y-77563809D02*
X112274819Y-77849523D01*
X112274819Y-77849523D02*
X112227200Y-77944761D01*
X112227200Y-77944761D02*
X112179580Y-77992380D01*
X148128333Y-90549819D02*
X147795000Y-90073628D01*
X147556905Y-90549819D02*
X147556905Y-89549819D01*
X147556905Y-89549819D02*
X147937857Y-89549819D01*
X147937857Y-89549819D02*
X148033095Y-89597438D01*
X148033095Y-89597438D02*
X148080714Y-89645057D01*
X148080714Y-89645057D02*
X148128333Y-89740295D01*
X148128333Y-89740295D02*
X148128333Y-89883152D01*
X148128333Y-89883152D02*
X148080714Y-89978390D01*
X148080714Y-89978390D02*
X148033095Y-90026009D01*
X148033095Y-90026009D02*
X147937857Y-90073628D01*
X147937857Y-90073628D02*
X147556905Y-90073628D01*
X148461667Y-89549819D02*
X149080714Y-89549819D01*
X149080714Y-89549819D02*
X148747381Y-89930771D01*
X148747381Y-89930771D02*
X148890238Y-89930771D01*
X148890238Y-89930771D02*
X148985476Y-89978390D01*
X148985476Y-89978390D02*
X149033095Y-90026009D01*
X149033095Y-90026009D02*
X149080714Y-90121247D01*
X149080714Y-90121247D02*
X149080714Y-90359342D01*
X149080714Y-90359342D02*
X149033095Y-90454580D01*
X149033095Y-90454580D02*
X148985476Y-90502200D01*
X148985476Y-90502200D02*
X148890238Y-90549819D01*
X148890238Y-90549819D02*
X148604524Y-90549819D01*
X148604524Y-90549819D02*
X148509286Y-90502200D01*
X148509286Y-90502200D02*
X148461667Y-90454580D01*
X148128333Y-93499819D02*
X147795000Y-93023628D01*
X147556905Y-93499819D02*
X147556905Y-92499819D01*
X147556905Y-92499819D02*
X147937857Y-92499819D01*
X147937857Y-92499819D02*
X148033095Y-92547438D01*
X148033095Y-92547438D02*
X148080714Y-92595057D01*
X148080714Y-92595057D02*
X148128333Y-92690295D01*
X148128333Y-92690295D02*
X148128333Y-92833152D01*
X148128333Y-92833152D02*
X148080714Y-92928390D01*
X148080714Y-92928390D02*
X148033095Y-92976009D01*
X148033095Y-92976009D02*
X147937857Y-93023628D01*
X147937857Y-93023628D02*
X147556905Y-93023628D01*
X148985476Y-92833152D02*
X148985476Y-93499819D01*
X148747381Y-92452200D02*
X148509286Y-93166485D01*
X148509286Y-93166485D02*
X149128333Y-93166485D01*
X138426660Y-129564104D02*
X138902850Y-129564104D01*
X138331422Y-129849819D02*
X138664755Y-128849819D01*
X138664755Y-128849819D02*
X138998088Y-129849819D01*
X139855231Y-129849819D02*
X139283803Y-129849819D01*
X139569517Y-129849819D02*
X139569517Y-128849819D01*
X139569517Y-128849819D02*
X139474279Y-128992676D01*
X139474279Y-128992676D02*
X139379041Y-129087914D01*
X139379041Y-129087914D02*
X139283803Y-129135533D01*
X174774819Y-79373333D02*
X175489104Y-79373333D01*
X175489104Y-79373333D02*
X175631961Y-79420952D01*
X175631961Y-79420952D02*
X175727200Y-79516190D01*
X175727200Y-79516190D02*
X175774819Y-79659047D01*
X175774819Y-79659047D02*
X175774819Y-79754285D01*
X174870057Y-78944761D02*
X174822438Y-78897142D01*
X174822438Y-78897142D02*
X174774819Y-78801904D01*
X174774819Y-78801904D02*
X174774819Y-78563809D01*
X174774819Y-78563809D02*
X174822438Y-78468571D01*
X174822438Y-78468571D02*
X174870057Y-78420952D01*
X174870057Y-78420952D02*
X174965295Y-78373333D01*
X174965295Y-78373333D02*
X175060533Y-78373333D01*
X175060533Y-78373333D02*
X175203390Y-78420952D01*
X175203390Y-78420952D02*
X175774819Y-78992380D01*
X175774819Y-78992380D02*
X175774819Y-78373333D01*
X102166666Y-94534819D02*
X102166666Y-95249104D01*
X102166666Y-95249104D02*
X102119047Y-95391961D01*
X102119047Y-95391961D02*
X102023809Y-95487200D01*
X102023809Y-95487200D02*
X101880952Y-95534819D01*
X101880952Y-95534819D02*
X101785714Y-95534819D01*
X103071428Y-94868152D02*
X103071428Y-95534819D01*
X102833333Y-94487200D02*
X102595238Y-95201485D01*
X102595238Y-95201485D02*
X103214285Y-95201485D01*
%TO.C,Q1*%
D14*
X146140000Y-96890000D02*
X150760000Y-96890000D01*
X146140000Y-107110000D02*
X146140000Y-96890000D01*
X149380000Y-96890000D02*
X149380000Y-107110000D01*
X150760000Y-96890000D02*
X150760000Y-107110000D01*
X150760000Y-100150000D02*
X149380000Y-100150000D01*
X150760000Y-103850000D02*
X149380000Y-103850000D01*
X150760000Y-107110000D02*
X146140000Y-107110000D01*
%TO.C,R2*%
X148067936Y-88060000D02*
X148522064Y-88060000D01*
X148067936Y-89530000D02*
X148522064Y-89530000D01*
%TO.C,J1*%
X100607500Y-57795000D02*
X110647500Y-57795000D01*
X100607500Y-60155000D02*
X100607500Y-57795000D01*
X100607500Y-68195000D02*
X100607500Y-60755000D01*
X101227500Y-57795000D02*
X101227500Y-68195000D01*
X102727500Y-57795000D02*
X102727500Y-68195000D01*
X107627500Y-57795000D02*
X107627500Y-68195000D01*
X110647500Y-57795000D02*
X110647500Y-68195000D01*
X110647500Y-68195000D02*
X100607500Y-68195000D01*
X100607500Y-60455000D02*
X99997500Y-60895000D01*
X99997500Y-60015000D01*
X100607500Y-60455000D01*
G36*
X100607500Y-60455000D02*
G01*
X99997500Y-60895000D01*
X99997500Y-60015000D01*
X100607500Y-60455000D01*
G37*
%TO.C,R1*%
X148067936Y-85110000D02*
X148522064Y-85110000D01*
X148067936Y-86580000D02*
X148522064Y-86580000D01*
%TO.C,J3*%
X100780000Y-72840000D02*
X110820000Y-72840000D01*
X100780000Y-75200000D02*
X100780000Y-72840000D01*
X100780000Y-83240000D02*
X100780000Y-75800000D01*
X101400000Y-72840000D02*
X101400000Y-83240000D01*
X102900000Y-72840000D02*
X102900000Y-83240000D01*
X107800000Y-72840000D02*
X107800000Y-83240000D01*
X110820000Y-72840000D02*
X110820000Y-83240000D01*
X110820000Y-83240000D02*
X100780000Y-83240000D01*
X100780000Y-75500000D02*
X100170000Y-75940000D01*
X100170000Y-75060000D01*
X100780000Y-75500000D01*
G36*
X100780000Y-75500000D02*
G01*
X100170000Y-75940000D01*
X100170000Y-75060000D01*
X100780000Y-75500000D01*
G37*
%TO.C,R3*%
X148067936Y-91010000D02*
X148522064Y-91010000D01*
X148067936Y-92480000D02*
X148522064Y-92480000D01*
D15*
%TO.C,G\u002A\u002A\u002A*%
G36*
X167246582Y-113688365D02*
G01*
X167247734Y-113688740D01*
X167296751Y-113730522D01*
X167308521Y-113808827D01*
X167280847Y-113930113D01*
X167211529Y-114100839D01*
X167098371Y-114327465D01*
X166939174Y-114616451D01*
X166921475Y-114647560D01*
X166796912Y-114863508D01*
X166684576Y-115053592D01*
X166591881Y-115205637D01*
X166526239Y-115307470D01*
X166495824Y-115346532D01*
X166442244Y-115361270D01*
X166319228Y-115386289D01*
X166141014Y-115418967D01*
X165921845Y-115456681D01*
X165704932Y-115492189D01*
X165212779Y-115570931D01*
X164691698Y-115654337D01*
X164135552Y-115743389D01*
X163538204Y-115839072D01*
X162893516Y-115942367D01*
X162195351Y-116054260D01*
X161437572Y-116175733D01*
X160614041Y-116307770D01*
X159718622Y-116451354D01*
X158838667Y-116592475D01*
X158241558Y-116688236D01*
X157619001Y-116788072D01*
X156983371Y-116889999D01*
X156347047Y-116992033D01*
X155722403Y-117092188D01*
X155121818Y-117188481D01*
X154557666Y-117278927D01*
X154042325Y-117361542D01*
X153588172Y-117434341D01*
X153273392Y-117484793D01*
X152861446Y-117550958D01*
X152475730Y-117613189D01*
X152124146Y-117670193D01*
X151814595Y-117720674D01*
X151554980Y-117763338D01*
X151353201Y-117796890D01*
X151217162Y-117820037D01*
X151154763Y-117831483D01*
X151151575Y-117832386D01*
X151154069Y-117875134D01*
X151165202Y-117988083D01*
X151183359Y-118157386D01*
X151206924Y-118369201D01*
X151234283Y-118609684D01*
X151263822Y-118864989D01*
X151293925Y-119121274D01*
X151322978Y-119364694D01*
X151349365Y-119581405D01*
X151371473Y-119757563D01*
X151387685Y-119879324D01*
X151396388Y-119932844D01*
X151396676Y-119933680D01*
X151439269Y-119931025D01*
X151558509Y-119913901D01*
X151747829Y-119883455D01*
X152000663Y-119840835D01*
X152310443Y-119787188D01*
X152670602Y-119723662D01*
X153074574Y-119651405D01*
X153515792Y-119571564D01*
X153987689Y-119485286D01*
X154436000Y-119402563D01*
X155512022Y-119203165D01*
X156507914Y-119018635D01*
X157426795Y-118848418D01*
X158271785Y-118691957D01*
X159046003Y-118548697D01*
X159752569Y-118418082D01*
X160394604Y-118299557D01*
X160975225Y-118192566D01*
X161497553Y-118096554D01*
X161964708Y-118010965D01*
X162379809Y-117935244D01*
X162745976Y-117868834D01*
X163066328Y-117811181D01*
X163343986Y-117761728D01*
X163582067Y-117719921D01*
X163783694Y-117685203D01*
X163951984Y-117657019D01*
X164090057Y-117634813D01*
X164201034Y-117618030D01*
X164288033Y-117606114D01*
X164354175Y-117598510D01*
X164402579Y-117594662D01*
X164436364Y-117594014D01*
X164458651Y-117596011D01*
X164472558Y-117600098D01*
X164481206Y-117605718D01*
X164487714Y-117612316D01*
X164487788Y-117612395D01*
X164503536Y-117662447D01*
X164530970Y-117786377D01*
X164568490Y-117974765D01*
X164614496Y-118218194D01*
X164667387Y-118507243D01*
X164725562Y-118832495D01*
X164787421Y-119184531D01*
X164851362Y-119553931D01*
X164915787Y-119931278D01*
X164979093Y-120307153D01*
X165039681Y-120672136D01*
X165095949Y-121016810D01*
X165146298Y-121331755D01*
X165189126Y-121607552D01*
X165222834Y-121834784D01*
X165245819Y-122004031D01*
X165256483Y-122105874D01*
X165255819Y-122131923D01*
X165243495Y-122182128D01*
X165221866Y-122300229D01*
X165193644Y-122470312D01*
X165161537Y-122676463D01*
X165150129Y-122752541D01*
X165106988Y-123042580D01*
X165073726Y-123260024D01*
X165047558Y-123415991D01*
X165025703Y-123521599D01*
X165005375Y-123587967D01*
X164983790Y-123626214D01*
X164958167Y-123647459D01*
X164925720Y-123662820D01*
X164921799Y-123664546D01*
X164872420Y-123676515D01*
X164745424Y-123703936D01*
X164546232Y-123745721D01*
X164280264Y-123800782D01*
X163952938Y-123868029D01*
X163569674Y-123946374D01*
X163135892Y-124034728D01*
X162657011Y-124132003D01*
X162138450Y-124237110D01*
X161585630Y-124348961D01*
X161003969Y-124466466D01*
X160398886Y-124588538D01*
X159775803Y-124714087D01*
X159140137Y-124842026D01*
X158497308Y-124971264D01*
X157852736Y-125100715D01*
X157211840Y-125229289D01*
X156580040Y-125355897D01*
X155962755Y-125479451D01*
X155365405Y-125598862D01*
X154793409Y-125713042D01*
X154252186Y-125820902D01*
X153747156Y-125921354D01*
X153283739Y-126013308D01*
X152867354Y-126095676D01*
X152503420Y-126167370D01*
X152197356Y-126227301D01*
X151954584Y-126274381D01*
X151780520Y-126307520D01*
X151680586Y-126325630D01*
X151658213Y-126328833D01*
X151599905Y-126296972D01*
X151529662Y-126219556D01*
X151524606Y-126212417D01*
X151474513Y-126131481D01*
X151395593Y-125993805D01*
X151298136Y-125817734D01*
X151192433Y-125621618D01*
X151178047Y-125594521D01*
X151071147Y-125390524D01*
X151000497Y-125247389D01*
X150976226Y-125187970D01*
X151297499Y-125187970D01*
X151311609Y-125259690D01*
X151362473Y-125378740D01*
X151452873Y-125555874D01*
X151495978Y-125636575D01*
X151725093Y-126062557D01*
X158251470Y-124757161D01*
X158980840Y-124611213D01*
X159687421Y-124469706D01*
X160366773Y-124333536D01*
X161014456Y-124203596D01*
X161626029Y-124080782D01*
X162197052Y-123965988D01*
X162723084Y-123860110D01*
X163199685Y-123764041D01*
X163622415Y-123678677D01*
X163986833Y-123604912D01*
X164288499Y-123543642D01*
X164522972Y-123495760D01*
X164685813Y-123462162D01*
X164772581Y-123443742D01*
X164786294Y-123440382D01*
X164798150Y-123391549D01*
X164816306Y-123279190D01*
X164838397Y-123122510D01*
X164862058Y-122940712D01*
X164884924Y-122753000D01*
X164904631Y-122578579D01*
X164918814Y-122436652D01*
X164925107Y-122346424D01*
X164923713Y-122324435D01*
X164902053Y-122325933D01*
X164840824Y-122335989D01*
X164737778Y-122355073D01*
X164590665Y-122383652D01*
X164397236Y-122422196D01*
X164155243Y-122471174D01*
X163862435Y-122531053D01*
X163516564Y-122602302D01*
X163115381Y-122685391D01*
X162656636Y-122780788D01*
X162138081Y-122888961D01*
X161557467Y-123010379D01*
X160912544Y-123145511D01*
X160201063Y-123294825D01*
X159420775Y-123458791D01*
X158569432Y-123637876D01*
X157644783Y-123832550D01*
X156644581Y-124043280D01*
X155566575Y-124270536D01*
X154408517Y-124514787D01*
X154128167Y-124573932D01*
X153661658Y-124672164D01*
X153218866Y-124765035D01*
X152806864Y-124851084D01*
X152432722Y-124928852D01*
X152103514Y-124996878D01*
X151826311Y-125053705D01*
X151608186Y-125097872D01*
X151456211Y-125127918D01*
X151377457Y-125142386D01*
X151368415Y-125143500D01*
X151317362Y-125152825D01*
X151297499Y-125187970D01*
X150976226Y-125187970D01*
X150961466Y-125151837D01*
X150949426Y-125090585D01*
X150959745Y-125050354D01*
X150979718Y-125025639D01*
X151027001Y-125007702D01*
X151148270Y-124974863D01*
X151344269Y-124926958D01*
X151615744Y-124863824D01*
X151963439Y-124785299D01*
X152388100Y-124691220D01*
X152890473Y-124581424D01*
X153471302Y-124455748D01*
X154131332Y-124314030D01*
X154871310Y-124156106D01*
X155691980Y-123981814D01*
X156594088Y-123790990D01*
X157578379Y-123583473D01*
X157635966Y-123571351D01*
X158368332Y-123417102D01*
X159078097Y-123267432D01*
X159760847Y-123123279D01*
X160412165Y-122985583D01*
X161027636Y-122855283D01*
X161602846Y-122733319D01*
X162133379Y-122620630D01*
X162614819Y-122518156D01*
X163042753Y-122426835D01*
X163412763Y-122347608D01*
X163720436Y-122281414D01*
X163961355Y-122229192D01*
X164131106Y-122191882D01*
X164225273Y-122170422D01*
X164243854Y-122165423D01*
X164242801Y-122118162D01*
X164225661Y-121999030D01*
X164194663Y-121818802D01*
X164152038Y-121588252D01*
X164100015Y-121318155D01*
X164040825Y-121019285D01*
X163976696Y-120702418D01*
X163909860Y-120378328D01*
X163842545Y-120057791D01*
X163776982Y-119751579D01*
X163715401Y-119470470D01*
X163660031Y-119225236D01*
X163613102Y-119026654D01*
X163576844Y-118885497D01*
X163553487Y-118812540D01*
X163548389Y-118804911D01*
X163498215Y-118808662D01*
X163372284Y-118826621D01*
X163178077Y-118857509D01*
X162923073Y-118900043D01*
X162614754Y-118952942D01*
X162260600Y-119014923D01*
X161868092Y-119084705D01*
X161444710Y-119161007D01*
X161050723Y-119232861D01*
X160611942Y-119313330D01*
X160102380Y-119406801D01*
X159534528Y-119510982D01*
X158920877Y-119623578D01*
X158273919Y-119742299D01*
X157606147Y-119864852D01*
X156930052Y-119988944D01*
X156258125Y-120112283D01*
X155602859Y-120232576D01*
X154976746Y-120347531D01*
X154913358Y-120359170D01*
X154364466Y-120459779D01*
X153838318Y-120555879D01*
X153341017Y-120646373D01*
X152878669Y-120730166D01*
X152457376Y-120806164D01*
X152083243Y-120873270D01*
X151762375Y-120930391D01*
X151500874Y-120976430D01*
X151304846Y-121010294D01*
X151180394Y-121030885D01*
X151134436Y-121037167D01*
X151062770Y-121010001D01*
X150947679Y-120936893D01*
X150803930Y-120830427D01*
X150646290Y-120703188D01*
X150489526Y-120567759D01*
X150348405Y-120436725D01*
X150281135Y-120367424D01*
X150660684Y-120367424D01*
X150886758Y-120573374D01*
X151002272Y-120674638D01*
X151095083Y-120748741D01*
X151146584Y-120780910D01*
X151148585Y-120781245D01*
X151196609Y-120774264D01*
X151319046Y-120753528D01*
X151507042Y-120720616D01*
X151751744Y-120677105D01*
X152044297Y-120624576D01*
X152375849Y-120564607D01*
X152737545Y-120498775D01*
X152926585Y-120464218D01*
X153351054Y-120386451D01*
X153793255Y-120305326D01*
X154236384Y-120223933D01*
X154663636Y-120145363D01*
X155058207Y-120072705D01*
X155403292Y-120009051D01*
X155682087Y-119957490D01*
X155684833Y-119956981D01*
X155888502Y-119919312D01*
X156166713Y-119867973D01*
X156510730Y-119804571D01*
X156911819Y-119730713D01*
X157361243Y-119648006D01*
X157850267Y-119558057D01*
X158370157Y-119462473D01*
X158912177Y-119362861D01*
X159467592Y-119260828D01*
X160027666Y-119157981D01*
X160169653Y-119131914D01*
X160699369Y-119034582D01*
X161204661Y-118941558D01*
X161679399Y-118853982D01*
X162117453Y-118772993D01*
X162512694Y-118699730D01*
X162638350Y-118676363D01*
X163831855Y-118676363D01*
X164177608Y-120401210D01*
X164523361Y-122126057D01*
X164739190Y-122078128D01*
X164881365Y-122034443D01*
X164958506Y-121983602D01*
X164967638Y-121964681D01*
X164963296Y-121912687D01*
X164946632Y-121787920D01*
X164919272Y-121600412D01*
X164882841Y-121360195D01*
X164838967Y-121077300D01*
X164789276Y-120761759D01*
X164735394Y-120423603D01*
X164678948Y-120072865D01*
X164621564Y-119719575D01*
X164564869Y-119373766D01*
X164510488Y-119045468D01*
X164460049Y-118744715D01*
X164415177Y-118481536D01*
X164377499Y-118265965D01*
X164348641Y-118108031D01*
X164330231Y-118017769D01*
X164324908Y-118000297D01*
X164295830Y-118025808D01*
X164230413Y-118107537D01*
X164139518Y-118231413D01*
X164070286Y-118330234D01*
X163831855Y-118676363D01*
X162638350Y-118676363D01*
X162858989Y-118635333D01*
X163150210Y-118580940D01*
X163380226Y-118537691D01*
X163542907Y-118506725D01*
X163632123Y-118489181D01*
X163647841Y-118485569D01*
X163703798Y-118416230D01*
X163776735Y-118310195D01*
X163854813Y-118187070D01*
X163926198Y-118066460D01*
X163979052Y-117967971D01*
X164001540Y-117911207D01*
X163998651Y-117904500D01*
X163988505Y-117904775D01*
X163973328Y-117906154D01*
X163948594Y-117909463D01*
X163909779Y-117915529D01*
X163852357Y-117925180D01*
X163771804Y-117939244D01*
X163663595Y-117958549D01*
X163523205Y-117983920D01*
X163346108Y-118016186D01*
X163127781Y-118056175D01*
X162863697Y-118104713D01*
X162549333Y-118162628D01*
X162180163Y-118230748D01*
X161751662Y-118309900D01*
X161259305Y-118400911D01*
X160698568Y-118504609D01*
X160064925Y-118621822D01*
X159353851Y-118753376D01*
X159135000Y-118793867D01*
X158586303Y-118895380D01*
X158044647Y-118995582D01*
X157518287Y-119092946D01*
X157015475Y-119185946D01*
X156544466Y-119273055D01*
X156113515Y-119352747D01*
X155730874Y-119423496D01*
X155404798Y-119483775D01*
X155143541Y-119532058D01*
X154955357Y-119566818D01*
X154922833Y-119572822D01*
X154681540Y-119617357D01*
X154374206Y-119674085D01*
X154018053Y-119739825D01*
X153630299Y-119811401D01*
X153228164Y-119885632D01*
X152828869Y-119959341D01*
X152615667Y-119998698D01*
X152259319Y-120064589D01*
X151920389Y-120127463D01*
X151610106Y-120185222D01*
X151339704Y-120235768D01*
X151120414Y-120277001D01*
X150963468Y-120306822D01*
X150886758Y-120321774D01*
X150660684Y-120367424D01*
X150281135Y-120367424D01*
X150237693Y-120322670D01*
X150172158Y-120238179D01*
X150160662Y-120207322D01*
X150155125Y-120147136D01*
X150139451Y-120012398D01*
X150114830Y-119812461D01*
X150082451Y-119556679D01*
X150043503Y-119254406D01*
X149999175Y-118914995D01*
X149950657Y-118547799D01*
X149929286Y-118387319D01*
X149880269Y-118014150D01*
X149836227Y-117667234D01*
X149798181Y-117355501D01*
X149775615Y-117160875D01*
X150033333Y-117160875D01*
X150038795Y-117217182D01*
X150054306Y-117347139D01*
X150078552Y-117540495D01*
X150110219Y-117787000D01*
X150147995Y-118076401D01*
X150190565Y-118398450D01*
X150223833Y-118647659D01*
X150268991Y-118985787D01*
X150310327Y-119297631D01*
X150346535Y-119573152D01*
X150376307Y-119802311D01*
X150398337Y-119975072D01*
X150411319Y-120081395D01*
X150414333Y-120111403D01*
X150447239Y-120137653D01*
X150488417Y-120133597D01*
X150566649Y-120116049D01*
X150698944Y-120089942D01*
X150848250Y-120062451D01*
X150990474Y-120033505D01*
X151092541Y-120005808D01*
X151133114Y-119985190D01*
X151133157Y-119984623D01*
X151128240Y-119936843D01*
X151114850Y-119816600D01*
X151094314Y-119635527D01*
X151067956Y-119405259D01*
X151037101Y-119137432D01*
X151010108Y-118904266D01*
X150887901Y-117850865D01*
X150538371Y-117528433D01*
X150350227Y-117356041D01*
X150214960Y-117235857D01*
X150124109Y-117161725D01*
X150069217Y-117127488D01*
X150041823Y-117126989D01*
X150033468Y-117154072D01*
X150033333Y-117160875D01*
X149775615Y-117160875D01*
X149767152Y-117087885D01*
X149744159Y-116873318D01*
X149736456Y-116788963D01*
X150202667Y-116788963D01*
X150205497Y-116823442D01*
X150260851Y-116899663D01*
X150355900Y-117005541D01*
X150477814Y-117128991D01*
X150613762Y-117257928D01*
X150750914Y-117380269D01*
X150876441Y-117483927D01*
X150977512Y-117556819D01*
X151041297Y-117586860D01*
X151049333Y-117586441D01*
X151098393Y-117577570D01*
X151225951Y-117556167D01*
X151426902Y-117523059D01*
X151696138Y-117479072D01*
X152028551Y-117425030D01*
X152419034Y-117361760D01*
X152862481Y-117290086D01*
X153353784Y-117210835D01*
X153887835Y-117124832D01*
X154459528Y-117032902D01*
X155063755Y-116935872D01*
X155695409Y-116834566D01*
X156298667Y-116737929D01*
X157007368Y-116624469D01*
X157730430Y-116508715D01*
X158459143Y-116392062D01*
X159184798Y-116275903D01*
X159898685Y-116161633D01*
X160592096Y-116050645D01*
X161256320Y-115944334D01*
X161882648Y-115844094D01*
X162462372Y-115751318D01*
X162986781Y-115667401D01*
X163447166Y-115593736D01*
X163834818Y-115531717D01*
X163918667Y-115518304D01*
X166352833Y-115128934D01*
X166678405Y-114559816D01*
X166789287Y-114363726D01*
X166882193Y-114195079D01*
X166950251Y-114066703D01*
X166986589Y-113991427D01*
X166990481Y-113977203D01*
X166967589Y-113978872D01*
X166901291Y-113988017D01*
X166789325Y-114005013D01*
X166629432Y-114030239D01*
X166419348Y-114064070D01*
X166156814Y-114106884D01*
X165839568Y-114159057D01*
X165465348Y-114220967D01*
X165031894Y-114292990D01*
X164536944Y-114375503D01*
X163978236Y-114468882D01*
X163353510Y-114573505D01*
X162660505Y-114689748D01*
X161896958Y-114817989D01*
X161060610Y-114958603D01*
X160149198Y-115111968D01*
X159160461Y-115278461D01*
X158092138Y-115458459D01*
X157272333Y-115596641D01*
X156730135Y-115687930D01*
X156129882Y-115788791D01*
X155492398Y-115895737D01*
X154838511Y-116005282D01*
X154189048Y-116113938D01*
X153564834Y-116218217D01*
X152986697Y-116314633D01*
X152573333Y-116383432D01*
X152140626Y-116455573D01*
X151732086Y-116524073D01*
X151355515Y-116587598D01*
X151018715Y-116644815D01*
X150729489Y-116694387D01*
X150495639Y-116734980D01*
X150324968Y-116765260D01*
X150225278Y-116783891D01*
X150202667Y-116788963D01*
X149736456Y-116788963D01*
X149730225Y-116720731D01*
X149726370Y-116639056D01*
X149728203Y-116627811D01*
X149775971Y-116613916D01*
X149896822Y-116588258D01*
X150080293Y-116552786D01*
X150315919Y-116509452D01*
X150593233Y-116460204D01*
X150901772Y-116406992D01*
X151028167Y-116385609D01*
X151347438Y-116331888D01*
X151733717Y-116266890D01*
X152170520Y-116193388D01*
X152641360Y-116114157D01*
X153129754Y-116031970D01*
X153619216Y-115949602D01*
X154093263Y-115869826D01*
X154309000Y-115833520D01*
X154739636Y-115761058D01*
X155237620Y-115677283D01*
X155786802Y-115584910D01*
X156371034Y-115486654D01*
X156974165Y-115385231D01*
X157580048Y-115283357D01*
X158172533Y-115183748D01*
X158735471Y-115089119D01*
X158986833Y-115046870D01*
X159496035Y-114961262D01*
X160015377Y-114873898D01*
X160532850Y-114786803D01*
X161036450Y-114702000D01*
X161514170Y-114621510D01*
X161954002Y-114547357D01*
X162343941Y-114481564D01*
X162671980Y-114426154D01*
X162881500Y-114390707D01*
X163607822Y-114267847D01*
X164254645Y-114158776D01*
X164825898Y-114062862D01*
X165325510Y-113979474D01*
X165757410Y-113907978D01*
X166125530Y-113847745D01*
X166433798Y-113798141D01*
X166686144Y-113758535D01*
X166886498Y-113728296D01*
X167038789Y-113706791D01*
X167146947Y-113693389D01*
X167214901Y-113687457D01*
X167246582Y-113688365D01*
G37*
%TO.C,R4*%
D14*
X148067936Y-93960000D02*
X148522064Y-93960000D01*
X148067936Y-95430000D02*
X148522064Y-95430000D01*
%TO.C,A1*%
X115460000Y-81300000D02*
X115460000Y-79700000D01*
X115780000Y-79630000D02*
X115780000Y-129630000D01*
X116120000Y-79083000D02*
X116120000Y-130177000D01*
X116390000Y-79020000D02*
X118880000Y-79020000D01*
X116390000Y-130240000D02*
X120227939Y-130240000D01*
X118880000Y-79020000D02*
X118880000Y-79933520D01*
X118880000Y-79020000D02*
X120227940Y-79020000D01*
X118880000Y-82326480D02*
X118880000Y-126933520D01*
X118880000Y-129326480D02*
X118880000Y-130240000D01*
X121152061Y-79020000D02*
X122155000Y-79020000D01*
X122155000Y-79020000D02*
X130625000Y-79020000D01*
X122280000Y-77720000D02*
X122280000Y-78540000D01*
X122280000Y-77720000D02*
X130500000Y-77720000D01*
X122280000Y-78540000D02*
X122490000Y-78540000D01*
X122490000Y-78540000D02*
X122490000Y-79936000D01*
X122490000Y-82324000D02*
X122490000Y-83540000D01*
X122790000Y-130240000D02*
X121152061Y-130240000D01*
X129990000Y-130240000D02*
X122790000Y-130240000D01*
X130290000Y-78540000D02*
X130290000Y-79936000D01*
X130290000Y-82324000D02*
X130290000Y-83540000D01*
X130290000Y-83540000D02*
X122490000Y-83540000D01*
X130500000Y-77720000D02*
X130500000Y-78540000D01*
X130500000Y-78540000D02*
X130290000Y-78540000D01*
X130625000Y-79020000D02*
X131627939Y-79020000D01*
X131627939Y-130240000D02*
X129990000Y-130240000D01*
X132552061Y-79020000D02*
X133900000Y-79020000D01*
X132552061Y-130240000D02*
X136390000Y-130240000D01*
X133900000Y-79020000D02*
X133900000Y-79933520D01*
X133900000Y-82326480D02*
X133900000Y-126933520D01*
X133900000Y-129326480D02*
X133900000Y-130240000D01*
X136390000Y-79020000D02*
X133900000Y-79020000D01*
X136660000Y-130177000D02*
X136660000Y-79083000D01*
X137000000Y-79630000D02*
X137000000Y-129630000D01*
X115780000Y-79630000D02*
G75*
G02*
X116390000Y-79020000I610000J0D01*
G01*
X116390000Y-130240000D02*
G75*
G02*
X115780000Y-129630000I-99J609901D01*
G01*
X136390000Y-79020000D02*
G75*
G02*
X137000000Y-79630000I0J-610000D01*
G01*
X137000000Y-129630000D02*
G75*
G02*
X136390000Y-130240000I-610000J0D01*
G01*
%TO.C,J2*%
X164280000Y-73840000D02*
X174320000Y-73840000D01*
X164280000Y-76200000D02*
X164280000Y-73840000D01*
X164280000Y-84240000D02*
X164280000Y-76800000D01*
X164900000Y-73840000D02*
X164900000Y-84240000D01*
X166400000Y-73840000D02*
X166400000Y-84240000D01*
X171300000Y-73840000D02*
X171300000Y-84240000D01*
X174320000Y-73840000D02*
X174320000Y-84240000D01*
X174320000Y-84240000D02*
X164280000Y-84240000D01*
X164280000Y-76500000D02*
X163670000Y-76940000D01*
X163670000Y-76060000D01*
X164280000Y-76500000D01*
G36*
X164280000Y-76500000D02*
G01*
X163670000Y-76940000D01*
X163670000Y-76060000D01*
X164280000Y-76500000D01*
G37*
%TO.C,J4*%
X101120000Y-96080000D02*
X102500000Y-96080000D01*
X101120000Y-97460000D02*
X101120000Y-96080000D01*
X101120000Y-98730000D02*
X101120000Y-111540000D01*
X101120000Y-98730000D02*
X103880000Y-98730000D01*
X101120000Y-111540000D02*
X103880000Y-111540000D01*
X103880000Y-98730000D02*
X103880000Y-111540000D01*
%TD*%
D16*
%TO.P,Q1,1,G_1*%
%TO.N,Net-(Q1-G)*%
X147500000Y-99460000D03*
D17*
%TO.P,Q1,2,D_2*%
%TO.N,Net-(J2-Pin_2)*%
X147500000Y-102000000D03*
%TO.P,Q1,3,S_3*%
%TO.N,Net-(Q1-S)*%
X147500000Y-104540000D03*
%TD*%
D18*
%TO.P,J1,1,Pin_1_1*%
%TO.N,GNDPWR*%
X105327500Y-60455000D03*
D19*
%TO.P,J1,2,Pin_2_2*%
%TO.N,Net-(A1-VSYS)*%
X105327500Y-65535000D03*
%TD*%
D18*
%TO.P,J3,1,Pin_1_1*%
%TO.N,Net-(A1-GPIO5)*%
X105500000Y-75500000D03*
D19*
%TO.P,J3,2,Pin_2_2*%
%TO.N,Net-(A1-GPIO4)*%
X105500000Y-80580000D03*
%TD*%
D20*
%TO.P,A1,1,GPIO0_1*%
%TO.N,unconnected-(A1-GPIO0-Pad1)*%
X117500000Y-80500000D03*
D21*
%TO.P,A1,2,GPIO1_2*%
%TO.N,unconnected-(A1-GPIO1-Pad2)*%
X117500000Y-83040000D03*
D22*
%TO.P,A1,3,GND_3*%
%TO.N,GNDPWR*%
X117500000Y-85580000D03*
D21*
%TO.P,A1,4,GPIO2_4*%
%TO.N,unconnected-(A1-GPIO2-Pad4)*%
X117500000Y-88120000D03*
%TO.P,A1,5,GPIO3_5*%
%TO.N,unconnected-(A1-GPIO3-Pad5)*%
X117500000Y-90660000D03*
%TO.P,A1,6,GPIO4_6*%
%TO.N,Net-(A1-GPIO4)*%
X117500000Y-93200000D03*
%TO.P,A1,7,GPIO5_7*%
%TO.N,Net-(A1-GPIO5)*%
X117500000Y-95740000D03*
D22*
%TO.P,A1,8,GND_8*%
%TO.N,GNDPWR*%
X117500000Y-98280000D03*
D21*
%TO.P,A1,9,GPIO6_9*%
%TO.N,unconnected-(A1-GPIO6-Pad9)*%
X117500000Y-100820000D03*
%TO.P,A1,10,GPIO7_10*%
%TO.N,unconnected-(A1-GPIO7-Pad10)*%
X117500000Y-103360000D03*
%TO.P,A1,11,GPIO8_11*%
%TO.N,unconnected-(A1-GPIO8-Pad11)*%
X117500000Y-105900000D03*
%TO.P,A1,12,GPIO9_12*%
%TO.N,unconnected-(A1-GPIO9-Pad12)*%
X117500000Y-108440000D03*
D22*
%TO.P,A1,13,GND_13*%
%TO.N,GNDPWR*%
X117500000Y-110980000D03*
D21*
%TO.P,A1,14,GPIO10_14*%
%TO.N,unconnected-(A1-GPIO10-Pad14)*%
X117500000Y-113520000D03*
%TO.P,A1,15,GPIO11_15*%
%TO.N,unconnected-(A1-GPIO11-Pad15)*%
X117500000Y-116060000D03*
%TO.P,A1,16,GPIO12_16*%
%TO.N,unconnected-(A1-GPIO12-Pad16)*%
X117500000Y-118600000D03*
%TO.P,A1,17,GPIO13_17*%
%TO.N,unconnected-(A1-GPIO13-Pad17)*%
X117500000Y-121140000D03*
D22*
%TO.P,A1,18,GND_18*%
%TO.N,GNDPWR*%
X117500000Y-123680000D03*
D21*
%TO.P,A1,19,GPIO14_19*%
%TO.N,unconnected-(A1-GPIO14-Pad19)*%
X117500000Y-126220000D03*
%TO.P,A1,20,GPIO15_20*%
%TO.N,unconnected-(A1-GPIO15-Pad20)*%
X117500000Y-128760000D03*
%TO.P,A1,21,GPIO16_21*%
%TO.N,Net-(A1-GPIO16)*%
X135280000Y-128760000D03*
%TO.P,A1,22,GPIO17_22*%
%TO.N,unconnected-(A1-GPIO17-Pad22)*%
X135280000Y-126220000D03*
D23*
%TO.P,A1,23,GND_23*%
%TO.N,GNDPWR*%
X135280000Y-123680000D03*
D21*
%TO.P,A1,24,GPIO18_24*%
%TO.N,unconnected-(A1-GPIO18-Pad24)*%
X135280000Y-121140000D03*
%TO.P,A1,25,GPIO19_25*%
%TO.N,unconnected-(A1-GPIO19-Pad25)*%
X135280000Y-118600000D03*
%TO.P,A1,26,GPIO20_26*%
%TO.N,unconnected-(A1-GPIO20-Pad26)*%
X135280000Y-116060000D03*
%TO.P,A1,27,GPIO21_27*%
%TO.N,unconnected-(A1-GPIO21-Pad27)*%
X135280000Y-113520000D03*
D23*
%TO.P,A1,28,GND_28*%
%TO.N,GNDPWR*%
X135280000Y-110980000D03*
D21*
%TO.P,A1,29,GPIO22_29*%
%TO.N,unconnected-(A1-GPIO22-Pad29)*%
X135280000Y-108440000D03*
%TO.P,A1,30,RUN_30*%
%TO.N,unconnected-(A1-RUN-Pad30)*%
X135280000Y-105900000D03*
%TO.P,A1,31,GPIO26_ADC0_31*%
%TO.N,unconnected-(A1-GPIO26_ADC0-Pad31)*%
X135280000Y-103360000D03*
%TO.P,A1,32,GPIO27_ADC1_32*%
%TO.N,unconnected-(A1-GPIO27_ADC1-Pad32)*%
X135280000Y-100820000D03*
D23*
%TO.P,A1,33,AGND_33*%
%TO.N,unconnected-(A1-AGND-Pad33)*%
X135280000Y-98280000D03*
D21*
%TO.P,A1,34,GPIO28_ADC2_34*%
%TO.N,unconnected-(A1-GPIO28_ADC2-Pad34)*%
X135280000Y-95740000D03*
%TO.P,A1,35,ADC_VREF_35*%
%TO.N,unconnected-(A1-ADC_VREF-Pad35)*%
X135280000Y-93200000D03*
%TO.P,A1,36,3V3_36*%
%TO.N,Net-(A1-3V3)*%
X135280000Y-90660000D03*
%TO.P,A1,37,3V3_EN_37*%
%TO.N,unconnected-(A1-3V3_EN-Pad37)*%
X135280000Y-88120000D03*
D23*
%TO.P,A1,38,GND_38*%
%TO.N,GNDPWR*%
X135280000Y-85580000D03*
D21*
%TO.P,A1,39,VSYS_39*%
%TO.N,Net-(A1-VSYS)*%
X135280000Y-83040000D03*
%TO.P,A1,40,VBUS_40*%
%TO.N,unconnected-(A1-VBUS-Pad40)*%
X135280000Y-80500000D03*
%TD*%
D18*
%TO.P,J2,1,Pin_1_1*%
%TO.N,Net-(A1-VSYS)*%
X169000000Y-76500000D03*
D19*
%TO.P,J2,2,Pin_2_2*%
%TO.N,Net-(J2-Pin_2)*%
X169000000Y-81580000D03*
%TD*%
D24*
%TO.P,J4,1,Pin_1_1*%
%TO.N,Net-(A1-3V3)*%
X102500000Y-97460000D03*
D25*
%TO.P,J4,2,Pin_2_2*%
%TO.N,GNDPWR*%
X102500000Y-100000000D03*
%TO.P,J4,3,Pin_3_3*%
%TO.N,Net-(A1-GPIO5)*%
X102500000Y-102540000D03*
%TO.P,J4,4,Pin_4_4*%
%TO.N,Net-(A1-GPIO4)*%
X102500000Y-105080000D03*
%TO.P,J4,5,Pin_5_5*%
%TO.N,unconnected-(J4-Pin_5-Pad5)*%
X102500000Y-107620000D03*
%TO.P,J4,6,Pin_6_6*%
%TO.N,unconnected-(J4-Pin_6-Pad6)*%
X102500000Y-110160000D03*
%TD*%
D26*
%TO.N,GNDPWR*%
X149207500Y-88795000D03*
%TO.N,Net-(A1-GPIO16)*%
X147382500Y-85845000D03*
%TO.N,Net-(A1-3V3)*%
X133000000Y-91000000D03*
X146800000Y-92878282D03*
X128500000Y-88960000D03*
X128500000Y-99500000D03*
X128500000Y-84980000D03*
%TD*%
%TO.N,GNDPWR*%
D27*
X136380000Y-122580000D02*
X136380000Y-112080000D01*
X118600000Y-97180000D02*
X117500000Y-98280000D01*
X135280000Y-123278578D02*
X135280000Y-123680000D01*
X135280000Y-85580000D02*
X136860000Y-84000000D01*
X117500000Y-85580000D02*
X135280000Y-85580000D01*
X153500000Y-84000000D02*
X153500000Y-84502500D01*
X116400000Y-99380000D02*
X116400000Y-109880000D01*
X116400000Y-109880000D02*
X117500000Y-110980000D01*
X117500000Y-110980000D02*
X118600000Y-112080000D01*
X136385000Y-86685000D02*
X135280000Y-85580000D01*
X136860000Y-84000000D02*
X153500000Y-84000000D01*
X136385000Y-109875000D02*
X136385000Y-86685000D01*
X118600000Y-86680000D02*
X118600000Y-97180000D01*
X136380000Y-112080000D02*
X135280000Y-110980000D01*
X118600000Y-122580000D02*
X117500000Y-123680000D01*
X117500000Y-98280000D02*
X116400000Y-99380000D01*
X135280000Y-110980000D02*
X136385000Y-109875000D01*
X135280000Y-123680000D02*
X136380000Y-122580000D01*
X118845000Y-121530000D02*
X133531422Y-121530000D01*
X133531422Y-121530000D02*
X135280000Y-123278578D01*
X118600000Y-112080000D02*
X118600000Y-122580000D01*
X117500000Y-122875000D02*
X118845000Y-121530000D01*
X153500000Y-84502500D02*
X149207500Y-88795000D01*
X117500000Y-123680000D02*
X117500000Y-122875000D01*
X117500000Y-85580000D02*
X118600000Y-86680000D01*
%TO.N,Net-(A1-GPIO16)*%
X140000000Y-124040000D02*
X140000000Y-87000000D01*
X135280000Y-128760000D02*
X140000000Y-124040000D01*
X140000000Y-87000000D02*
X141155000Y-85845000D01*
X141155000Y-85845000D02*
X147382500Y-85845000D01*
%TO.N,Net-(A1-3V3)*%
X128500000Y-88960000D02*
X128500000Y-90500000D01*
X146800000Y-92878282D02*
X153900000Y-85778282D01*
X153900000Y-83834315D02*
X153565685Y-83500000D01*
X135735635Y-84140000D02*
X134860000Y-84140000D01*
X134860000Y-84140000D02*
X134500000Y-84500000D01*
X128500000Y-97440000D02*
X128500000Y-99500000D01*
X134500000Y-84500000D02*
X128980000Y-84500000D01*
X128500000Y-90500000D02*
X129000000Y-91000000D01*
X128980000Y-84500000D02*
X128500000Y-84980000D01*
X135280000Y-90660000D02*
X128500000Y-97440000D01*
X136375635Y-83500000D02*
X135735635Y-84140000D01*
X153565685Y-83500000D02*
X136375635Y-83500000D01*
X153900000Y-85778282D02*
X153900000Y-83834315D01*
X129000000Y-91000000D02*
X133000000Y-91000000D01*
%TD*%
D28*
%TO.C,Q1*%
X147500000Y-99460000D03*
D29*
X147500000Y-102000000D03*
X147500000Y-104540000D03*
%TD*%
D30*
%TO.C,J1*%
X105327500Y-60455000D03*
D31*
X105327500Y-65535000D03*
%TD*%
D30*
%TO.C,J3*%
X105500000Y-75500000D03*
D31*
X105500000Y-80580000D03*
%TD*%
D32*
%TO.C,REF\u002A\u002A*%
X171500000Y-53500000D03*
%TD*%
%TO.C,REF\u002A\u002A*%
X103500000Y-136500000D03*
%TD*%
%TO.C,REF\u002A\u002A*%
X171500000Y-136500000D03*
%TD*%
D33*
%TO.C,A1*%
X117500000Y-80500000D03*
D34*
X117500000Y-83040000D03*
D35*
X117500000Y-85580000D03*
D34*
X117500000Y-88120000D03*
X117500000Y-90660000D03*
X117500000Y-93200000D03*
X117500000Y-95740000D03*
D35*
X117500000Y-98280000D03*
D34*
X117500000Y-100820000D03*
X117500000Y-103360000D03*
X117500000Y-105900000D03*
X117500000Y-108440000D03*
D35*
X117500000Y-110980000D03*
D34*
X117500000Y-113520000D03*
X117500000Y-116060000D03*
X117500000Y-118600000D03*
X117500000Y-121140000D03*
D35*
X117500000Y-123680000D03*
D34*
X117500000Y-126220000D03*
X117500000Y-128760000D03*
X135280000Y-128760000D03*
X135280000Y-126220000D03*
D36*
X135280000Y-123680000D03*
D34*
X135280000Y-121140000D03*
X135280000Y-118600000D03*
X135280000Y-116060000D03*
X135280000Y-113520000D03*
D36*
X135280000Y-110980000D03*
D34*
X135280000Y-108440000D03*
X135280000Y-105900000D03*
X135280000Y-103360000D03*
X135280000Y-100820000D03*
D36*
X135280000Y-98280000D03*
D34*
X135280000Y-95740000D03*
X135280000Y-93200000D03*
X135280000Y-90660000D03*
X135280000Y-88120000D03*
D36*
X135280000Y-85580000D03*
D34*
X135280000Y-83040000D03*
X135280000Y-80500000D03*
%TD*%
D30*
%TO.C,J2*%
X169000000Y-76500000D03*
D31*
X169000000Y-81580000D03*
%TD*%
D37*
%TO.C,J4*%
X102500000Y-97460000D03*
D38*
X102500000Y-100000000D03*
X102500000Y-102540000D03*
X102500000Y-105080000D03*
X102500000Y-107620000D03*
X102500000Y-110160000D03*
%TD*%
D32*
%TO.C,REF\u002A\u002A*%
X103500000Y-53500000D03*
%TD*%
D11*
D39*
X166840225Y-71300828D02*
X167340225Y-72800828D01*
X167340225Y-72800828D02*
X167840225Y-71300828D01*
X168625939Y-71300828D02*
X168911653Y-71300828D01*
X168911653Y-71300828D02*
X169054510Y-71372257D01*
X169054510Y-71372257D02*
X169197367Y-71515114D01*
X169197367Y-71515114D02*
X169268796Y-71800828D01*
X169268796Y-71800828D02*
X169268796Y-72300828D01*
X169268796Y-72300828D02*
X169197367Y-72586542D01*
X169197367Y-72586542D02*
X169054510Y-72729400D01*
X169054510Y-72729400D02*
X168911653Y-72800828D01*
X168911653Y-72800828D02*
X168625939Y-72800828D01*
X168625939Y-72800828D02*
X168483082Y-72729400D01*
X168483082Y-72729400D02*
X168340224Y-72586542D01*
X168340224Y-72586542D02*
X168268796Y-72300828D01*
X168268796Y-72300828D02*
X168268796Y-71800828D01*
X168268796Y-71800828D02*
X168340224Y-71515114D01*
X168340224Y-71515114D02*
X168483082Y-71372257D01*
X168483082Y-71372257D02*
X168625939Y-71300828D01*
X169911653Y-71300828D02*
X169911653Y-72515114D01*
X169911653Y-72515114D02*
X169983082Y-72657971D01*
X169983082Y-72657971D02*
X170054511Y-72729400D01*
X170054511Y-72729400D02*
X170197368Y-72800828D01*
X170197368Y-72800828D02*
X170483082Y-72800828D01*
X170483082Y-72800828D02*
X170625939Y-72729400D01*
X170625939Y-72729400D02*
X170697368Y-72657971D01*
X170697368Y-72657971D02*
X170768796Y-72515114D01*
X170768796Y-72515114D02*
X170768796Y-71300828D01*
X171268797Y-71300828D02*
X172125940Y-71300828D01*
X171697368Y-72800828D02*
X171697368Y-71300828D01*
D16*
%TO.P,Q1,1,G_1*%
%TO.N,Net-(Q1-G)*%
X147500000Y-99460000D03*
D17*
%TO.P,Q1,2,D_2*%
%TO.N,Net-(J2-Pin_2)*%
X147500000Y-102000000D03*
%TO.P,Q1,3,S_3*%
%TO.N,Net-(Q1-S)*%
X147500000Y-104540000D03*
%TD*%
D40*
%TO.P,R2,1*%
%TO.N,Net-(Q1-S)*%
X147382500Y-88795000D03*
%TO.P,R2,2*%
%TO.N,GNDPWR*%
X149207500Y-88795000D03*
%TD*%
D18*
%TO.P,J1,1,Pin_1_1*%
%TO.N,GNDPWR*%
X105327500Y-60455000D03*
D19*
%TO.P,J1,2,Pin_2_2*%
%TO.N,Net-(A1-VSYS)*%
X105327500Y-65535000D03*
%TD*%
D40*
%TO.P,R1,1*%
%TO.N,Net-(A1-GPIO16)*%
X147382500Y-85845000D03*
%TO.P,R1,2*%
%TO.N,Net-(Q1-G)*%
X149207500Y-85845000D03*
%TD*%
D18*
%TO.P,J3,1,Pin_1_1*%
%TO.N,Net-(A1-GPIO5)*%
X105500000Y-75500000D03*
D19*
%TO.P,J3,2,Pin_2_2*%
%TO.N,Net-(A1-GPIO4)*%
X105500000Y-80580000D03*
%TD*%
D40*
%TO.P,R3,1*%
%TO.N,Net-(A1-GPIO4)*%
X147382500Y-91745000D03*
%TO.P,R3,2*%
%TO.N,Net-(A1-3V3)*%
X149207500Y-91745000D03*
%TD*%
%TO.P,R4,1*%
%TO.N,Net-(A1-GPIO5)*%
X147382500Y-94695000D03*
%TO.P,R4,2*%
%TO.N,Net-(A1-3V3)*%
X149207500Y-94695000D03*
%TD*%
D20*
%TO.P,A1,1,GPIO0_1*%
%TO.N,unconnected-(A1-GPIO0-Pad1)*%
X117500000Y-80500000D03*
D21*
%TO.P,A1,2,GPIO1_2*%
%TO.N,unconnected-(A1-GPIO1-Pad2)*%
X117500000Y-83040000D03*
D22*
%TO.P,A1,3,GND_3*%
%TO.N,GNDPWR*%
X117500000Y-85580000D03*
D21*
%TO.P,A1,4,GPIO2_4*%
%TO.N,unconnected-(A1-GPIO2-Pad4)*%
X117500000Y-88120000D03*
%TO.P,A1,5,GPIO3_5*%
%TO.N,unconnected-(A1-GPIO3-Pad5)*%
X117500000Y-90660000D03*
%TO.P,A1,6,GPIO4_6*%
%TO.N,Net-(A1-GPIO4)*%
X117500000Y-93200000D03*
%TO.P,A1,7,GPIO5_7*%
%TO.N,Net-(A1-GPIO5)*%
X117500000Y-95740000D03*
D22*
%TO.P,A1,8,GND_8*%
%TO.N,GNDPWR*%
X117500000Y-98280000D03*
D21*
%TO.P,A1,9,GPIO6_9*%
%TO.N,unconnected-(A1-GPIO6-Pad9)*%
X117500000Y-100820000D03*
%TO.P,A1,10,GPIO7_10*%
%TO.N,unconnected-(A1-GPIO7-Pad10)*%
X117500000Y-103360000D03*
%TO.P,A1,11,GPIO8_11*%
%TO.N,unconnected-(A1-GPIO8-Pad11)*%
X117500000Y-105900000D03*
%TO.P,A1,12,GPIO9_12*%
%TO.N,unconnected-(A1-GPIO9-Pad12)*%
X117500000Y-108440000D03*
D22*
%TO.P,A1,13,GND_13*%
%TO.N,GNDPWR*%
X117500000Y-110980000D03*
D21*
%TO.P,A1,14,GPIO10_14*%
%TO.N,unconnected-(A1-GPIO10-Pad14)*%
X117500000Y-113520000D03*
%TO.P,A1,15,GPIO11_15*%
%TO.N,unconnected-(A1-GPIO11-Pad15)*%
X117500000Y-116060000D03*
%TO.P,A1,16,GPIO12_16*%
%TO.N,unconnected-(A1-GPIO12-Pad16)*%
X117500000Y-118600000D03*
%TO.P,A1,17,GPIO13_17*%
%TO.N,unconnected-(A1-GPIO13-Pad17)*%
X117500000Y-121140000D03*
D22*
%TO.P,A1,18,GND_18*%
%TO.N,GNDPWR*%
X117500000Y-123680000D03*
D21*
%TO.P,A1,19,GPIO14_19*%
%TO.N,unconnected-(A1-GPIO14-Pad19)*%
X117500000Y-126220000D03*
%TO.P,A1,20,GPIO15_20*%
%TO.N,unconnected-(A1-GPIO15-Pad20)*%
X117500000Y-128760000D03*
%TO.P,A1,21,GPIO16_21*%
%TO.N,Net-(A1-GPIO16)*%
X135280000Y-128760000D03*
%TO.P,A1,22,GPIO17_22*%
%TO.N,unconnected-(A1-GPIO17-Pad22)*%
X135280000Y-126220000D03*
D23*
%TO.P,A1,23,GND_23*%
%TO.N,GNDPWR*%
X135280000Y-123680000D03*
D21*
%TO.P,A1,24,GPIO18_24*%
%TO.N,unconnected-(A1-GPIO18-Pad24)*%
X135280000Y-121140000D03*
%TO.P,A1,25,GPIO19_25*%
%TO.N,unconnected-(A1-GPIO19-Pad25)*%
X135280000Y-118600000D03*
%TO.P,A1,26,GPIO20_26*%
%TO.N,unconnected-(A1-GPIO20-Pad26)*%
X135280000Y-116060000D03*
%TO.P,A1,27,GPIO21_27*%
%TO.N,unconnected-(A1-GPIO21-Pad27)*%
X135280000Y-113520000D03*
D23*
%TO.P,A1,28,GND_28*%
%TO.N,GNDPWR*%
X135280000Y-110980000D03*
D21*
%TO.P,A1,29,GPIO22_29*%
%TO.N,unconnected-(A1-GPIO22-Pad29)*%
X135280000Y-108440000D03*
%TO.P,A1,30,RUN_30*%
%TO.N,unconnected-(A1-RUN-Pad30)*%
X135280000Y-105900000D03*
%TO.P,A1,31,GPIO26_ADC0_31*%
%TO.N,unconnected-(A1-GPIO26_ADC0-Pad31)*%
X135280000Y-103360000D03*
%TO.P,A1,32,GPIO27_ADC1_32*%
%TO.N,unconnected-(A1-GPIO27_ADC1-Pad32)*%
X135280000Y-100820000D03*
D23*
%TO.P,A1,33,AGND_33*%
%TO.N,unconnected-(A1-AGND-Pad33)*%
X135280000Y-98280000D03*
D21*
%TO.P,A1,34,GPIO28_ADC2_34*%
%TO.N,unconnected-(A1-GPIO28_ADC2-Pad34)*%
X135280000Y-95740000D03*
%TO.P,A1,35,ADC_VREF_35*%
%TO.N,unconnected-(A1-ADC_VREF-Pad35)*%
X135280000Y-93200000D03*
%TO.P,A1,36,3V3_36*%
%TO.N,Net-(A1-3V3)*%
X135280000Y-90660000D03*
%TO.P,A1,37,3V3_EN_37*%
%TO.N,unconnected-(A1-3V3_EN-Pad37)*%
X135280000Y-88120000D03*
D23*
%TO.P,A1,38,GND_38*%
%TO.N,GNDPWR*%
X135280000Y-85580000D03*
D21*
%TO.P,A1,39,VSYS_39*%
%TO.N,Net-(A1-VSYS)*%
X135280000Y-83040000D03*
%TO.P,A1,40,VBUS_40*%
%TO.N,unconnected-(A1-VBUS-Pad40)*%
X135280000Y-80500000D03*
%TD*%
D18*
%TO.P,J2,1,Pin_1_1*%
%TO.N,Net-(A1-VSYS)*%
X169000000Y-76500000D03*
D19*
%TO.P,J2,2,Pin_2_2*%
%TO.N,Net-(J2-Pin_2)*%
X169000000Y-81580000D03*
%TD*%
D24*
%TO.P,J4,1,Pin_1_1*%
%TO.N,Net-(A1-3V3)*%
X102500000Y-97460000D03*
D25*
%TO.P,J4,2,Pin_2_2*%
%TO.N,GNDPWR*%
X102500000Y-100000000D03*
%TO.P,J4,3,Pin_3_3*%
%TO.N,Net-(A1-GPIO5)*%
X102500000Y-102540000D03*
%TO.P,J4,4,Pin_4_4*%
%TO.N,Net-(A1-GPIO4)*%
X102500000Y-105080000D03*
%TO.P,J4,5,Pin_5_5*%
%TO.N,unconnected-(J4-Pin_5-Pad5)*%
X102500000Y-107620000D03*
%TO.P,J4,6,Pin_6_6*%
%TO.N,unconnected-(J4-Pin_6-Pad6)*%
X102500000Y-110160000D03*
%TD*%
D26*
%TO.N,GNDPWR*%
X149207500Y-88795000D03*
%TO.N,Net-(A1-GPIO16)*%
X147382500Y-85845000D03*
%TO.N,Net-(A1-3V3)*%
X133000000Y-91000000D03*
X146800000Y-92878282D03*
X128500000Y-88960000D03*
X128500000Y-99500000D03*
X128500000Y-84980000D03*
%TD*%
%TO.N,Net-(Q1-G)*%
D27*
X147500000Y-99460000D02*
X152000000Y-94960000D01*
X152000000Y-85500000D02*
X151500000Y-85500000D01*
X152000000Y-94960000D02*
X152000000Y-85500000D01*
X151500000Y-85500000D02*
X151155000Y-85845000D01*
X151155000Y-85845000D02*
X149207500Y-85845000D01*
%TO.N,Net-(J2-Pin_2)*%
X148800000Y-98896769D02*
X148800000Y-100700000D01*
X166116769Y-81580000D02*
X148800000Y-98896769D01*
X148800000Y-100700000D02*
X147500000Y-102000000D01*
X169000000Y-81580000D02*
X166116769Y-81580000D01*
%TO.N,Net-(Q1-S)*%
X146200000Y-89977500D02*
X147382500Y-88795000D01*
X147500000Y-104540000D02*
X146200000Y-103240000D01*
X146200000Y-103240000D02*
X146200000Y-89977500D01*
%TO.N,GNDPWR*%
X111440786Y-79520786D02*
X111440786Y-66568286D01*
X117500000Y-85580000D02*
X111440786Y-79520786D01*
X102500000Y-100000000D02*
X106880650Y-100000000D01*
X111440786Y-66568286D02*
X105327500Y-60455000D01*
X106880650Y-100000000D02*
X117500000Y-110619350D01*
X117500000Y-110619350D02*
X117500000Y-110980000D01*
%TO.N,Net-(A1-VSYS)*%
X107355000Y-58855000D02*
X115708960Y-67208960D01*
X115708960Y-74153484D02*
X124595476Y-83040000D01*
X115708960Y-67208960D02*
X115708960Y-74153484D01*
X103727500Y-63935000D02*
X103727500Y-59170256D01*
X105327500Y-65535000D02*
X103727500Y-63935000D01*
X103727500Y-59170256D02*
X104042756Y-58855000D01*
X104042756Y-58855000D02*
X107355000Y-58855000D01*
X169000000Y-76500000D02*
X141820000Y-76500000D01*
X141820000Y-76500000D02*
X135280000Y-83040000D01*
X124595476Y-83040000D02*
X135280000Y-83040000D01*
%TO.N,Net-(A1-GPIO5)*%
X149539058Y-87245000D02*
X150020000Y-87725942D01*
X114260000Y-92500000D02*
X117500000Y-95740000D01*
X139534950Y-87395000D02*
X137369950Y-89560000D01*
X150020000Y-92429744D02*
X149704744Y-92745000D01*
X169828427Y-79580000D02*
X152150256Y-79580000D01*
X103650000Y-106350000D02*
X103500000Y-106500000D01*
X103650000Y-103690000D02*
X103650000Y-106350000D01*
X149332500Y-92745000D02*
X147382500Y-94695000D01*
X116400000Y-94640000D02*
X117500000Y-95740000D01*
X149704744Y-92745000D02*
X149332500Y-92745000D01*
X171440786Y-90961474D02*
X171440786Y-81192359D01*
X103500000Y-106500000D02*
X104742446Y-107742446D01*
X102500000Y-102540000D02*
X103650000Y-103690000D01*
X104742446Y-109050764D02*
X107776682Y-112085000D01*
X116940000Y-89560000D02*
X114000000Y-92500000D01*
X116400000Y-86400000D02*
X116400000Y-94640000D01*
X104742446Y-107742446D02*
X104742446Y-109050764D01*
X146570000Y-86529744D02*
X147285256Y-87245000D01*
X114000000Y-92500000D02*
X114260000Y-92500000D01*
X116940000Y-89560000D02*
X137369950Y-89560000D01*
X150020000Y-88110256D02*
X149304744Y-87395000D01*
X171440786Y-81192359D02*
X169828427Y-79580000D01*
X149304744Y-87395000D02*
X139534950Y-87395000D01*
X146570000Y-85160256D02*
X146570000Y-86529744D01*
X150317260Y-112085000D02*
X171440786Y-90961474D01*
X152150256Y-79580000D02*
X146570000Y-85160256D01*
X107776682Y-112085000D02*
X150317260Y-112085000D01*
X105500000Y-75500000D02*
X116400000Y-86400000D01*
X150020000Y-87725942D02*
X150020000Y-92429744D01*
X150020000Y-92429744D02*
X150020000Y-88110256D01*
X147285256Y-87245000D02*
X149539058Y-87245000D01*
%TO.N,Net-(A1-GPIO4)*%
X118600000Y-94300000D02*
X117500000Y-93200000D01*
X115602183Y-95397817D02*
X117044365Y-96840000D01*
X117955635Y-96840000D02*
X118600000Y-96195635D01*
X100950000Y-96710000D02*
X102262183Y-95397817D01*
X105500000Y-85295635D02*
X115602183Y-95397817D01*
X147879744Y-87795000D02*
X139700635Y-87795000D01*
X105500000Y-80580000D02*
X105500000Y-85295635D01*
X100950000Y-103530000D02*
X100950000Y-96710000D01*
X147382500Y-91745000D02*
X148195000Y-90932500D01*
X148195000Y-90932500D02*
X148195000Y-88110256D01*
X118600000Y-92100000D02*
X117500000Y-93200000D01*
X102500000Y-105080000D02*
X100950000Y-103530000D01*
X148195000Y-88110256D02*
X147879744Y-87795000D01*
X135395635Y-92100000D02*
X118600000Y-92100000D01*
X117044365Y-96840000D02*
X117955635Y-96840000D01*
X139700635Y-87795000D02*
X135395635Y-92100000D01*
X118600000Y-96195635D02*
X118600000Y-94300000D01*
X102262183Y-95397817D02*
X115602183Y-95397817D01*
%TO.N,Net-(A1-3V3)*%
X134940000Y-91000000D02*
X135280000Y-90660000D01*
X148395000Y-86529744D02*
X148710256Y-86845000D01*
X140641198Y-99500000D02*
X149436423Y-108295225D01*
X102500000Y-97460000D02*
X104540000Y-99500000D01*
X153575256Y-79980000D02*
X148395000Y-85160256D01*
X149436423Y-108295225D02*
X153541350Y-108295225D01*
X133000000Y-91000000D02*
X134940000Y-91000000D01*
X153541350Y-108295225D02*
X154000000Y-107836575D01*
X150500000Y-87640256D02*
X150500000Y-93402500D01*
X170600000Y-80917258D02*
X169662742Y-79980000D01*
X149207500Y-91745000D02*
X148074218Y-92878282D01*
X149704744Y-86845000D02*
X150500000Y-87640256D01*
X148440000Y-91745000D02*
X148195000Y-91500000D01*
X150500000Y-93402500D02*
X149207500Y-94695000D01*
X154000000Y-97517258D02*
X168337258Y-83180000D01*
X169662742Y-79980000D02*
X153575256Y-79980000D01*
X169662742Y-83180000D02*
X170600000Y-82242742D01*
X148074218Y-92878282D02*
X146800000Y-92878282D01*
X128500000Y-99500000D02*
X140641198Y-99500000D01*
X170600000Y-82242742D02*
X170600000Y-80917258D01*
X148395000Y-85160256D02*
X148395000Y-86529744D01*
X104540000Y-99500000D02*
X128500000Y-99500000D01*
X148710256Y-86845000D02*
X149704744Y-86845000D01*
X154000000Y-107836575D02*
X154000000Y-97517258D01*
X149207500Y-91745000D02*
X148440000Y-91745000D01*
X168337258Y-83180000D02*
X169662742Y-83180000D01*
X128500000Y-84980000D02*
X128500000Y-88960000D01*
%TD*%
D28*
%TO.C,Q1*%
X147500000Y-99460000D03*
D29*
X147500000Y-102000000D03*
X147500000Y-104540000D03*
%TD*%
D41*
%TO.C,R2*%
X147382500Y-88795000D03*
X149207500Y-88795000D03*
%TD*%
D30*
%TO.C,J1*%
X105327500Y-60455000D03*
D31*
X105327500Y-65535000D03*
%TD*%
D41*
%TO.C,R1*%
X147382500Y-85845000D03*
X149207500Y-85845000D03*
%TD*%
D30*
%TO.C,J3*%
X105500000Y-75500000D03*
D31*
X105500000Y-80580000D03*
%TD*%
D32*
%TO.C,REF\u002A\u002A*%
X171500000Y-53500000D03*
%TD*%
%TO.C,REF\u002A\u002A*%
X103500000Y-136500000D03*
%TD*%
D41*
%TO.C,R3*%
X147382500Y-91745000D03*
X149207500Y-91745000D03*
%TD*%
D32*
%TO.C,REF\u002A\u002A*%
X171500000Y-136500000D03*
%TD*%
D41*
%TO.C,R4*%
X147382500Y-94695000D03*
X149207500Y-94695000D03*
%TD*%
D33*
%TO.C,A1*%
X117500000Y-80500000D03*
D34*
X117500000Y-83040000D03*
D35*
X117500000Y-85580000D03*
D34*
X117500000Y-88120000D03*
X117500000Y-90660000D03*
X117500000Y-93200000D03*
X117500000Y-95740000D03*
D35*
X117500000Y-98280000D03*
D34*
X117500000Y-100820000D03*
X117500000Y-103360000D03*
X117500000Y-105900000D03*
X117500000Y-108440000D03*
D35*
X117500000Y-110980000D03*
D34*
X117500000Y-113520000D03*
X117500000Y-116060000D03*
X117500000Y-118600000D03*
X117500000Y-121140000D03*
D35*
X117500000Y-123680000D03*
D34*
X117500000Y-126220000D03*
X117500000Y-128760000D03*
X135280000Y-128760000D03*
X135280000Y-126220000D03*
D36*
X135280000Y-123680000D03*
D34*
X135280000Y-121140000D03*
X135280000Y-118600000D03*
X135280000Y-116060000D03*
X135280000Y-113520000D03*
D36*
X135280000Y-110980000D03*
D34*
X135280000Y-108440000D03*
X135280000Y-105900000D03*
X135280000Y-103360000D03*
X135280000Y-100820000D03*
D36*
X135280000Y-98280000D03*
D34*
X135280000Y-95740000D03*
X135280000Y-93200000D03*
X135280000Y-90660000D03*
X135280000Y-88120000D03*
D36*
X135280000Y-85580000D03*
D34*
X135280000Y-83040000D03*
X135280000Y-80500000D03*
%TD*%
D30*
%TO.C,J2*%
X169000000Y-76500000D03*
D31*
X169000000Y-81580000D03*
%TD*%
D37*
%TO.C,J4*%
X102500000Y-97460000D03*
D38*
X102500000Y-100000000D03*
X102500000Y-102540000D03*
X102500000Y-105080000D03*
X102500000Y-107620000D03*
X102500000Y-110160000D03*
%TD*%
D32*
%TO.C,REF\u002A\u002A*%
X103500000Y-53500000D03*
%TD*%
D41*
%TO.C,R2*%
X147382500Y-88795000D03*
X149207500Y-88795000D03*
%TD*%
%TO.C,R1*%
X147382500Y-85845000D03*
X149207500Y-85845000D03*
%TD*%
%TO.C,R3*%
X147382500Y-91745000D03*
X149207500Y-91745000D03*
%TD*%
%TO.C,R4*%
X147382500Y-94695000D03*
X149207500Y-94695000D03*
%TD*%
D42*
X100000000Y-53000000D02*
G75*
G02*
X103000000Y-50000000I3000000J0D01*
G01*
X100000000Y-137000000D02*
X100000000Y-53000000D01*
X103000000Y-50000000D02*
X172000000Y-50000000D01*
X103000000Y-140000000D02*
G75*
G02*
X100000000Y-137000000I0J3000000D01*
G01*
X172000000Y-50000000D02*
G75*
G02*
X175000000Y-53000000I0J-3000000D01*
G01*
X172000000Y-140000000D02*
X103000000Y-140000000D01*
X175000000Y-53000000D02*
X175000000Y-137000000D01*
X175000000Y-137000000D02*
G75*
G02*
X172000000Y-140000000I-3000000J0D01*
G01*
M02*
