M48
; DRILL file KiCad 10.0.5 date 2026-08-26T20:09:11
; FORMAT={-:-/ absolute / metric / decimal}
; #@! TF.CreationDate,2026-08-26T20:09:11-07:00
; #@! TF.GenerationSoftware,Kicad,Pcbnew,10.0.5
; #@! TF.FileFunction,Plated,1,2,PTH
FMAT,2
METRIC
; #@! TA.AperFunction,Plated,PTH,ViaDrill
T1C0.300
; #@! TA.AperFunction,Plated,PTH,ComponentDrill
T2C1.000
; #@! TA.AperFunction,Plated,PTH,ComponentDrill
T3C1.100
; #@! TA.AperFunction,Plated,PTH,ComponentDrill
T4C1.300
%
G90
G05
T1
X128.5Y-84.98
X128.5Y-88.96
X128.5Y-99.5
X133.0Y-91.0
X146.8Y-92.878
X147.382Y-85.845
X149.207Y-88.795
T2
X102.5Y-97.46
X102.5Y-100.0
X102.5Y-102.54
X102.5Y-105.08
X102.5Y-107.62
X102.5Y-110.16
X117.5Y-80.5
X117.5Y-83.04
X117.5Y-85.58
X117.5Y-88.12
X117.5Y-90.66
X117.5Y-93.2
X117.5Y-95.74
X117.5Y-98.28
X117.5Y-100.82
X117.5Y-103.36
X117.5Y-105.9
X117.5Y-108.44
X117.5Y-110.98
X117.5Y-113.52
X117.5Y-116.06
X117.5Y-118.6
X117.5Y-121.14
X117.5Y-123.68
X117.5Y-126.22
X117.5Y-128.76
X135.28Y-80.5
X135.28Y-83.04
X135.28Y-85.58
X135.28Y-88.12
X135.28Y-90.66
X135.28Y-93.2
X135.28Y-95.74
X135.28Y-98.28
X135.28Y-100.82
X135.28Y-103.36
X135.28Y-105.9
X135.28Y-108.44
X135.28Y-110.98
X135.28Y-113.52
X135.28Y-116.06
X135.28Y-118.6
X135.28Y-121.14
X135.28Y-123.68
X135.28Y-126.22
X135.28Y-128.76
T3
X147.5Y-99.46
X147.5Y-102.0
X147.5Y-104.54
T4
X105.328Y-60.455
X105.328Y-65.535
X105.5Y-75.5
X105.5Y-80.58
X169.0Y-76.5
X169.0Y-81.58
M30
